G04 #@! TF.GenerationSoftware,KiCad,Pcbnew,(5.1.5)-3*
G04 #@! TF.CreationDate,2020-04-28T07:27:48+09:00*
G04 #@! TF.ProjectId,skc03-jis,736b6330-332d-46a6-9973-2e6b69636164,03*
G04 #@! TF.SameCoordinates,PX7565b60PY115170f0*
G04 #@! TF.FileFunction,Soldermask,Top*
G04 #@! TF.FilePolarity,Negative*
%FSLAX46Y46*%
G04 Gerber Fmt 4.6, Leading zero omitted, Abs format (unit mm)*
G04 Created by KiCad (PCBNEW (5.1.5)-3) date 2020-04-28 07:27:48*
%MOMM*%
%LPD*%
G04 APERTURE LIST*
G04 #@! TA.AperFunction,Profile*
%ADD10C,0.100000*%
G04 #@! TD*
%ADD11C,1.050000*%
%ADD12O,2.500000X1.400000*%
%ADD13O,2.200000X1.400000*%
%ADD14C,4.300000*%
%ADD15C,3.400000*%
%ADD16C,4.400000*%
%ADD17C,4.387800*%
%ADD18C,1.600000*%
%ADD19C,3.800000*%
%ADD20C,3.100000*%
%ADD21O,2.100000X2.100000*%
%ADD22R,2.100000X2.100000*%
%ADD23C,1.850000*%
%ADD24C,0.150000*%
%ADD25C,1.520000*%
%ADD26C,2.150000*%
%ADD27R,2.150000X2.150000*%
%ADD28O,2.150000X1.600000*%
G04 APERTURE END LIST*
D10*
X160228499Y7380001D02*
X320228499Y7380001D01*
X156228499Y73830000D02*
X156228499Y78380000D01*
X9424988Y14702327D02*
X9424987Y137379276D01*
X324228499Y11380001D02*
G75*
G02X320228499Y7380001I-4000000J0D01*
G01*
X144422749Y127380726D02*
X144422749Y137379276D01*
X171417299Y135380001D02*
G75*
G02X175417299Y139380001I4000000J0D01*
G01*
X171417299Y135380001D02*
X171417299Y124380000D01*
X13424987Y141379275D02*
X140422750Y141379275D01*
X171417299Y124380000D02*
G75*
G02X167417299Y120380000I-4000000J0D01*
G01*
X320228499Y139380001D02*
G75*
G02X324228499Y135380001I0J-4000000D01*
G01*
X324228499Y11380001D02*
X324228499Y135380001D01*
X165424999Y120380001D02*
X167417299Y120380001D01*
X161425000Y116380001D02*
G75*
G02X165424999Y120380000I3999999J0D01*
G01*
X320228499Y139380001D02*
X175417299Y139380000D01*
X9424988Y137379276D02*
G75*
G02X13424987Y141379275I3999999J0D01*
G01*
X140422750Y141379275D02*
G75*
G02X144422749Y137379276I0J-3999999D01*
G01*
X137476198Y102095543D02*
G75*
G02X135423087Y105589770I1946889J3494227D01*
G01*
X161424999Y106380001D02*
X161425000Y116380001D01*
X163924999Y102671902D02*
G75*
G02X161424999Y106380001I1500000J3708099D01*
G01*
X163925000Y102671900D02*
G75*
G02X166424999Y98963802I-1500000J-3708098D01*
G01*
X166424999Y86380000D02*
X166424999Y98963802D01*
X166424999Y86380000D02*
G75*
G02X162424999Y82380000I-4000000J0D01*
G01*
X160228499Y82380000D02*
X162424999Y82380000D01*
X156228499Y78380000D02*
G75*
G02X160228499Y82380000I4000000J0D01*
G01*
X156228499Y11380001D02*
X156228499Y73830000D01*
X149424988Y80899507D02*
X149424988Y13379275D01*
X149424988Y80899506D02*
G75*
G02X153424976Y84899507I4000000J1D01*
G01*
X157294948Y84899519D02*
X153424976Y84899507D01*
X159294942Y86899517D02*
G75*
G02X157294948Y84899519I-1999999J1D01*
G01*
X159294943Y93859517D02*
X159294943Y86899518D01*
X157294943Y95859517D02*
G75*
G02X159294943Y93859517I0J-2000000D01*
G01*
X143119168Y95859515D02*
X157294942Y95859517D01*
X143119169Y95859515D02*
G75*
G02X139140013Y99451681I-1J4000000D01*
G01*
X138949998Y100325416D02*
G75*
G02X139140013Y99451681I-3789139J-1281568D01*
G01*
X137476198Y102095543D02*
G75*
G02X138949998Y100325416I-1557511J-2795381D01*
G01*
X156247761Y10987932D02*
X156228499Y11380001D01*
X156305358Y10599639D02*
X156247761Y10987932D01*
X156400738Y10218862D02*
X156305358Y10599639D01*
X156532981Y9849267D02*
X156400738Y10218862D01*
X156700814Y9494414D02*
X156532981Y9849267D01*
X156902621Y9157720D02*
X156700814Y9494414D01*
X157136458Y8842427D02*
X156902621Y9157720D01*
X157400072Y8551573D02*
X157136458Y8842427D01*
X157690926Y8287959D02*
X157400072Y8551573D01*
X158006219Y8054122D02*
X157690926Y8287959D01*
X158342913Y7852315D02*
X158006219Y8054122D01*
X158697766Y7684482D02*
X158342913Y7852315D01*
X159067361Y7552239D02*
X158697766Y7684482D01*
X159448138Y7456859D02*
X159067361Y7552239D01*
X159836431Y7399262D02*
X159448138Y7456859D01*
X160228499Y7380001D02*
X159836431Y7399262D01*
X149424988Y13379275D02*
G75*
G02X145424988Y9379275I-4000000J0D01*
G01*
X135423087Y119380727D02*
X135423087Y105589770D01*
X135423088Y119380727D02*
G75*
G02X139423087Y123380726I3999999J0D01*
G01*
X140422750Y123380727D02*
X139423087Y123380726D01*
X144422749Y127380726D02*
G75*
G02X140422750Y123380727I-3999999J0D01*
G01*
X145424988Y9379275D02*
X13424987Y9379275D01*
X9424987Y13379275D02*
X9424988Y14702327D01*
X13424987Y9379275D02*
G75*
G02X9424987Y13379275I0J4000000D01*
G01*
D11*
G04 #@! TO.C,J5*
X15700000Y41020000D03*
X15700000Y35240000D03*
D12*
X16200000Y33810000D03*
X16200000Y42450000D03*
D13*
X12020000Y33810000D03*
X12020000Y42450000D03*
G04 #@! TD*
D14*
G04 #@! TO.C,SW47*
X319679999Y113780001D03*
X319679999Y89980001D03*
D15*
X304439999Y113780001D03*
X304439999Y89980001D03*
D16*
X311424999Y101880001D03*
G04 #@! TD*
D17*
G04 #@! TO.C,SW33*
X199424999Y130380001D03*
G04 #@! TD*
G04 #@! TO.C,SW54*
X289424999Y92380001D03*
G04 #@! TD*
G04 #@! TO.C,SW38*
X294424999Y130380001D03*
G04 #@! TD*
G04 #@! TO.C,SW39*
X313424990Y130380010D03*
G04 #@! TD*
D18*
G04 #@! TO.C,SW69*
X293204999Y50180001D03*
D19*
X298424999Y54380001D03*
G04 #@! TD*
D18*
G04 #@! TO.C,SW66*
X217204999Y50180001D03*
D19*
X222424999Y54380001D03*
G04 #@! TD*
D18*
G04 #@! TO.C,SW70*
X274204999Y50180001D03*
D19*
X279424999Y54380001D03*
G04 #@! TD*
D18*
G04 #@! TO.C,SW61*
X274204999Y69180001D03*
D19*
X279424999Y73380001D03*
G04 #@! TD*
D18*
G04 #@! TO.C,SW68*
X255204999Y50180001D03*
D19*
X260424999Y54380001D03*
G04 #@! TD*
D18*
G04 #@! TO.C,SW67*
X236204999Y50180001D03*
D19*
X241424999Y54380001D03*
G04 #@! TD*
D18*
G04 #@! TO.C,SW28*
X73455000Y52180000D03*
D19*
X78675000Y56380000D03*
G04 #@! TD*
D18*
G04 #@! TO.C,SW29*
X101955000Y52180000D03*
D19*
X107175000Y56380000D03*
G04 #@! TD*
D18*
G04 #@! TO.C,SW27*
X44955000Y52180000D03*
D19*
X50175000Y56380000D03*
G04 #@! TD*
D18*
G04 #@! TO.C,SW65*
X193454999Y50180001D03*
D19*
X198674999Y54380001D03*
G04 #@! TD*
D18*
G04 #@! TO.C,SW64*
X164954999Y50180001D03*
D19*
X170174999Y54380001D03*
G04 #@! TD*
D18*
G04 #@! TO.C,SW30*
X130455000Y52180000D03*
D19*
X135675000Y56380000D03*
G04 #@! TD*
D18*
G04 #@! TO.C,SW26*
X18736960Y52180000D03*
D19*
X23956960Y56380000D03*
G04 #@! TD*
D14*
G04 #@! TO.C,SW20*
X45325000Y67125000D03*
X21525000Y67125000D03*
D15*
X45325000Y82365000D03*
X21525000Y82365000D03*
D16*
X33425000Y75380000D03*
G04 #@! TD*
G04 #@! TO.C,SW14*
X28425000Y94380000D03*
G04 #@! TD*
G04 #@! TO.C,SW8*
X26425000Y113380000D03*
G04 #@! TD*
D17*
G04 #@! TO.C,SW3*
X59425000Y132380000D03*
G04 #@! TD*
G04 #@! TO.C,SW19*
X130425000Y94380000D03*
G04 #@! TD*
G04 #@! TO.C,SW6*
X116425000Y132380000D03*
G04 #@! TD*
G04 #@! TO.C,SW24*
X121425000Y75380000D03*
G04 #@! TD*
G04 #@! TO.C,SW44*
X246424999Y111380001D03*
G04 #@! TD*
G04 #@! TO.C,SW62*
X298424999Y73380001D03*
G04 #@! TD*
G04 #@! TO.C,SW60*
X260424999Y73380001D03*
G04 #@! TD*
G04 #@! TO.C,SW25*
X140425000Y75380000D03*
G04 #@! TD*
G04 #@! TO.C,SW37*
X275424999Y130380001D03*
G04 #@! TD*
G04 #@! TO.C,SW59*
X241424999Y73380001D03*
G04 #@! TD*
G04 #@! TO.C,SW58*
X222424999Y73380001D03*
G04 #@! TD*
G04 #@! TO.C,SW57*
X203424999Y73380001D03*
G04 #@! TD*
G04 #@! TO.C,SW56*
X184424999Y73380001D03*
G04 #@! TD*
G04 #@! TO.C,SW55*
X165424999Y73380001D03*
G04 #@! TD*
G04 #@! TO.C,SW53*
X270424999Y92380001D03*
G04 #@! TD*
G04 #@! TO.C,SW52*
X251424999Y92380001D03*
G04 #@! TD*
G04 #@! TO.C,SW51*
X232424999Y92380001D03*
G04 #@! TD*
G04 #@! TO.C,SW50*
X213424999Y92380001D03*
G04 #@! TD*
G04 #@! TO.C,SW49*
X194424999Y92380001D03*
G04 #@! TD*
G04 #@! TO.C,SW48*
X175424999Y92380001D03*
G04 #@! TD*
G04 #@! TO.C,SW46*
X284424999Y111380001D03*
G04 #@! TD*
G04 #@! TO.C,SW45*
X265424999Y111380001D03*
G04 #@! TD*
G04 #@! TO.C,SW43*
X227424999Y111380001D03*
G04 #@! TD*
G04 #@! TO.C,SW42*
X208424999Y111380001D03*
G04 #@! TD*
G04 #@! TO.C,SW41*
X189424999Y111380001D03*
G04 #@! TD*
G04 #@! TO.C,SW40*
X170424999Y111380001D03*
G04 #@! TD*
G04 #@! TO.C,SW36*
X256424999Y130380001D03*
G04 #@! TD*
G04 #@! TO.C,SW35*
X237424999Y130380001D03*
G04 #@! TD*
G04 #@! TO.C,SW34*
X218424999Y130380001D03*
G04 #@! TD*
G04 #@! TO.C,SW63*
X180424999Y130380001D03*
G04 #@! TD*
G04 #@! TO.C,SW23*
X102425000Y75380000D03*
G04 #@! TD*
G04 #@! TO.C,SW22*
X83425000Y75380000D03*
G04 #@! TD*
G04 #@! TO.C,SW21*
X64425000Y75380000D03*
G04 #@! TD*
G04 #@! TO.C,SW18*
X111425000Y94380000D03*
G04 #@! TD*
G04 #@! TO.C,SW17*
X92425000Y94380000D03*
G04 #@! TD*
G04 #@! TO.C,SW16*
X73425000Y94380000D03*
G04 #@! TD*
G04 #@! TO.C,SW15*
X54425000Y94380000D03*
G04 #@! TD*
G04 #@! TO.C,SW13*
X126425000Y113380000D03*
G04 #@! TD*
G04 #@! TO.C,SW12*
X107425000Y113380000D03*
G04 #@! TD*
G04 #@! TO.C,SW11*
X88425000Y113380000D03*
G04 #@! TD*
G04 #@! TO.C,SW10*
X69425000Y113380000D03*
G04 #@! TD*
G04 #@! TO.C,SW9*
X50425000Y113380000D03*
G04 #@! TD*
G04 #@! TO.C,SW7*
X135425000Y132380000D03*
G04 #@! TD*
G04 #@! TO.C,SW5*
X97425000Y132380000D03*
G04 #@! TD*
G04 #@! TO.C,SW4*
X78425000Y132380000D03*
G04 #@! TD*
G04 #@! TO.C,SW2*
X40425000Y132380000D03*
G04 #@! TD*
G04 #@! TO.C,SW1*
X21425000Y132380000D03*
G04 #@! TD*
D20*
G04 #@! TO.C,H\002A\002A*
X13654988Y47642760D03*
G04 #@! TD*
G04 #@! TO.C,H\002A\002A*
X319998499Y45630000D03*
G04 #@! TD*
G04 #@! TO.C,H\002A\002A*
X319998499Y120380001D03*
G04 #@! TD*
G04 #@! TO.C,H\002A\002A*
X179924999Y120126341D03*
G04 #@! TD*
G04 #@! TO.C,H\002A\002A*
X179924999Y45630000D03*
G04 #@! TD*
G04 #@! TO.C,H\002A\002A*
X125900487Y47629275D03*
G04 #@! TD*
G04 #@! TO.C,H\002A\002A*
X125900487Y123633671D03*
G04 #@! TD*
G04 #@! TO.C,H\002A\002A*
X13654988Y117379276D03*
G04 #@! TD*
D21*
G04 #@! TO.C,J7*
X135890000Y42418000D03*
D22*
X135890000Y44958000D03*
G04 #@! TD*
D23*
G04 #@! TO.C,HWB1*
X68580000Y46228000D03*
G04 #@! TD*
D21*
G04 #@! TO.C,J4*
X235424999Y26580001D03*
X235424999Y24040001D03*
X235424999Y21500001D03*
X235424999Y18960001D03*
X235424999Y16420001D03*
D22*
X235424999Y13880001D03*
G04 #@! TD*
D21*
G04 #@! TO.C,J1*
X13174999Y26080001D03*
X13174999Y23540001D03*
X13174999Y21000001D03*
X13174999Y18460001D03*
X13174999Y15920001D03*
D22*
X13174999Y13380001D03*
G04 #@! TD*
D24*
G04 #@! TO.C,SW31*
G36*
X125046556Y24677714D02*
G01*
X125092666Y24670874D01*
X125137883Y24659548D01*
X125181773Y24643844D01*
X125223911Y24623914D01*
X125263894Y24599949D01*
X125301335Y24572181D01*
X125335874Y24540877D01*
X125367178Y24506338D01*
X125394946Y24468897D01*
X125418911Y24428914D01*
X125438841Y24386776D01*
X125454545Y24342886D01*
X125465871Y24297669D01*
X125472711Y24251559D01*
X125474998Y24205001D01*
X125474998Y22555001D01*
X125472711Y22508443D01*
X125465871Y22462333D01*
X125454545Y22417116D01*
X125438841Y22373226D01*
X125418911Y22331088D01*
X125394946Y22291105D01*
X125367178Y22253664D01*
X125335874Y22219125D01*
X125301335Y22187821D01*
X125263894Y22160053D01*
X125223911Y22136088D01*
X125181773Y22116158D01*
X125137883Y22100454D01*
X125092666Y22089128D01*
X125046556Y22082288D01*
X124999998Y22080001D01*
X124049998Y22080001D01*
X124003440Y22082288D01*
X123957330Y22089128D01*
X123912113Y22100454D01*
X123868223Y22116158D01*
X123826085Y22136088D01*
X123786102Y22160053D01*
X123748661Y22187821D01*
X123714122Y22219125D01*
X123682818Y22253664D01*
X123655050Y22291105D01*
X123631085Y22331088D01*
X123611155Y22373226D01*
X123595451Y22417116D01*
X123584125Y22462333D01*
X123577285Y22508443D01*
X123574998Y22555001D01*
X123574998Y24205001D01*
X123577285Y24251559D01*
X123584125Y24297669D01*
X123595451Y24342886D01*
X123611155Y24386776D01*
X123631085Y24428914D01*
X123655050Y24468897D01*
X123682818Y24506338D01*
X123714122Y24540877D01*
X123748661Y24572181D01*
X123786102Y24599949D01*
X123826085Y24623914D01*
X123868223Y24643844D01*
X123912113Y24659548D01*
X123957330Y24670874D01*
X124003440Y24677714D01*
X124049998Y24680001D01*
X124999998Y24680001D01*
X125046556Y24677714D01*
G37*
G36*
X114746556Y24677714D02*
G01*
X114792666Y24670874D01*
X114837883Y24659548D01*
X114881773Y24643844D01*
X114923911Y24623914D01*
X114963894Y24599949D01*
X115001335Y24572181D01*
X115035874Y24540877D01*
X115067178Y24506338D01*
X115094946Y24468897D01*
X115118911Y24428914D01*
X115138841Y24386776D01*
X115154545Y24342886D01*
X115165871Y24297669D01*
X115172711Y24251559D01*
X115174998Y24205001D01*
X115174998Y22555001D01*
X115172711Y22508443D01*
X115165871Y22462333D01*
X115154545Y22417116D01*
X115138841Y22373226D01*
X115118911Y22331088D01*
X115094946Y22291105D01*
X115067178Y22253664D01*
X115035874Y22219125D01*
X115001335Y22187821D01*
X114963894Y22160053D01*
X114923911Y22136088D01*
X114881773Y22116158D01*
X114837883Y22100454D01*
X114792666Y22089128D01*
X114746556Y22082288D01*
X114699998Y22080001D01*
X113749998Y22080001D01*
X113703440Y22082288D01*
X113657330Y22089128D01*
X113612113Y22100454D01*
X113568223Y22116158D01*
X113526085Y22136088D01*
X113486102Y22160053D01*
X113448661Y22187821D01*
X113414122Y22219125D01*
X113382818Y22253664D01*
X113355050Y22291105D01*
X113331085Y22331088D01*
X113311155Y22373226D01*
X113295451Y22417116D01*
X113284125Y22462333D01*
X113277285Y22508443D01*
X113274998Y22555001D01*
X113274998Y24205001D01*
X113277285Y24251559D01*
X113284125Y24297669D01*
X113295451Y24342886D01*
X113311155Y24386776D01*
X113331085Y24428914D01*
X113355050Y24468897D01*
X113382818Y24506338D01*
X113414122Y24540877D01*
X113448661Y24572181D01*
X113486102Y24599949D01*
X113526085Y24623914D01*
X113568223Y24643844D01*
X113612113Y24659548D01*
X113657330Y24670874D01*
X113703440Y24677714D01*
X113749998Y24680001D01*
X114699998Y24680001D01*
X114746556Y24677714D01*
G37*
D25*
X121374998Y23880001D03*
X117374998Y23880001D03*
G04 #@! TD*
D24*
G04 #@! TO.C,SW32*
G36*
X125096558Y37677713D02*
G01*
X125142668Y37670873D01*
X125187885Y37659547D01*
X125231775Y37643843D01*
X125273913Y37623913D01*
X125313896Y37599948D01*
X125351337Y37572180D01*
X125385876Y37540876D01*
X125417180Y37506337D01*
X125444948Y37468896D01*
X125468913Y37428913D01*
X125488843Y37386775D01*
X125504547Y37342885D01*
X125515873Y37297668D01*
X125522713Y37251558D01*
X125525000Y37205000D01*
X125525000Y35555000D01*
X125522713Y35508442D01*
X125515873Y35462332D01*
X125504547Y35417115D01*
X125488843Y35373225D01*
X125468913Y35331087D01*
X125444948Y35291104D01*
X125417180Y35253663D01*
X125385876Y35219124D01*
X125351337Y35187820D01*
X125313896Y35160052D01*
X125273913Y35136087D01*
X125231775Y35116157D01*
X125187885Y35100453D01*
X125142668Y35089127D01*
X125096558Y35082287D01*
X125050000Y35080000D01*
X124100000Y35080000D01*
X124053442Y35082287D01*
X124007332Y35089127D01*
X123962115Y35100453D01*
X123918225Y35116157D01*
X123876087Y35136087D01*
X123836104Y35160052D01*
X123798663Y35187820D01*
X123764124Y35219124D01*
X123732820Y35253663D01*
X123705052Y35291104D01*
X123681087Y35331087D01*
X123661157Y35373225D01*
X123645453Y35417115D01*
X123634127Y35462332D01*
X123627287Y35508442D01*
X123625000Y35555000D01*
X123625000Y37205000D01*
X123627287Y37251558D01*
X123634127Y37297668D01*
X123645453Y37342885D01*
X123661157Y37386775D01*
X123681087Y37428913D01*
X123705052Y37468896D01*
X123732820Y37506337D01*
X123764124Y37540876D01*
X123798663Y37572180D01*
X123836104Y37599948D01*
X123876087Y37623913D01*
X123918225Y37643843D01*
X123962115Y37659547D01*
X124007332Y37670873D01*
X124053442Y37677713D01*
X124100000Y37680000D01*
X125050000Y37680000D01*
X125096558Y37677713D01*
G37*
G36*
X114796558Y37677713D02*
G01*
X114842668Y37670873D01*
X114887885Y37659547D01*
X114931775Y37643843D01*
X114973913Y37623913D01*
X115013896Y37599948D01*
X115051337Y37572180D01*
X115085876Y37540876D01*
X115117180Y37506337D01*
X115144948Y37468896D01*
X115168913Y37428913D01*
X115188843Y37386775D01*
X115204547Y37342885D01*
X115215873Y37297668D01*
X115222713Y37251558D01*
X115225000Y37205000D01*
X115225000Y35555000D01*
X115222713Y35508442D01*
X115215873Y35462332D01*
X115204547Y35417115D01*
X115188843Y35373225D01*
X115168913Y35331087D01*
X115144948Y35291104D01*
X115117180Y35253663D01*
X115085876Y35219124D01*
X115051337Y35187820D01*
X115013896Y35160052D01*
X114973913Y35136087D01*
X114931775Y35116157D01*
X114887885Y35100453D01*
X114842668Y35089127D01*
X114796558Y35082287D01*
X114750000Y35080000D01*
X113800000Y35080000D01*
X113753442Y35082287D01*
X113707332Y35089127D01*
X113662115Y35100453D01*
X113618225Y35116157D01*
X113576087Y35136087D01*
X113536104Y35160052D01*
X113498663Y35187820D01*
X113464124Y35219124D01*
X113432820Y35253663D01*
X113405052Y35291104D01*
X113381087Y35331087D01*
X113361157Y35373225D01*
X113345453Y35417115D01*
X113334127Y35462332D01*
X113327287Y35508442D01*
X113325000Y35555000D01*
X113325000Y37205000D01*
X113327287Y37251558D01*
X113334127Y37297668D01*
X113345453Y37342885D01*
X113361157Y37386775D01*
X113381087Y37428913D01*
X113405052Y37468896D01*
X113432820Y37506337D01*
X113464124Y37540876D01*
X113498663Y37572180D01*
X113536104Y37599948D01*
X113576087Y37623913D01*
X113618225Y37643843D01*
X113662115Y37659547D01*
X113707332Y37670873D01*
X113753442Y37677713D01*
X113800000Y37680000D01*
X114750000Y37680000D01*
X114796558Y37677713D01*
G37*
D25*
X121425000Y36880000D03*
X117425000Y36880000D03*
G04 #@! TD*
D24*
G04 #@! TO.C,SW71*
G36*
X181821557Y36677714D02*
G01*
X181867667Y36670874D01*
X181912884Y36659548D01*
X181956774Y36643844D01*
X181998912Y36623914D01*
X182038895Y36599949D01*
X182076336Y36572181D01*
X182110875Y36540877D01*
X182142179Y36506338D01*
X182169947Y36468897D01*
X182193912Y36428914D01*
X182213842Y36386776D01*
X182229546Y36342886D01*
X182240872Y36297669D01*
X182247712Y36251559D01*
X182249999Y36205001D01*
X182249999Y34555001D01*
X182247712Y34508443D01*
X182240872Y34462333D01*
X182229546Y34417116D01*
X182213842Y34373226D01*
X182193912Y34331088D01*
X182169947Y34291105D01*
X182142179Y34253664D01*
X182110875Y34219125D01*
X182076336Y34187821D01*
X182038895Y34160053D01*
X181998912Y34136088D01*
X181956774Y34116158D01*
X181912884Y34100454D01*
X181867667Y34089128D01*
X181821557Y34082288D01*
X181774999Y34080001D01*
X180824999Y34080001D01*
X180778441Y34082288D01*
X180732331Y34089128D01*
X180687114Y34100454D01*
X180643224Y34116158D01*
X180601086Y34136088D01*
X180561103Y34160053D01*
X180523662Y34187821D01*
X180489123Y34219125D01*
X180457819Y34253664D01*
X180430051Y34291105D01*
X180406086Y34331088D01*
X180386156Y34373226D01*
X180370452Y34417116D01*
X180359126Y34462333D01*
X180352286Y34508443D01*
X180349999Y34555001D01*
X180349999Y36205001D01*
X180352286Y36251559D01*
X180359126Y36297669D01*
X180370452Y36342886D01*
X180386156Y36386776D01*
X180406086Y36428914D01*
X180430051Y36468897D01*
X180457819Y36506338D01*
X180489123Y36540877D01*
X180523662Y36572181D01*
X180561103Y36599949D01*
X180601086Y36623914D01*
X180643224Y36643844D01*
X180687114Y36659548D01*
X180732331Y36670874D01*
X180778441Y36677714D01*
X180824999Y36680001D01*
X181774999Y36680001D01*
X181821557Y36677714D01*
G37*
G36*
X192121557Y36677714D02*
G01*
X192167667Y36670874D01*
X192212884Y36659548D01*
X192256774Y36643844D01*
X192298912Y36623914D01*
X192338895Y36599949D01*
X192376336Y36572181D01*
X192410875Y36540877D01*
X192442179Y36506338D01*
X192469947Y36468897D01*
X192493912Y36428914D01*
X192513842Y36386776D01*
X192529546Y36342886D01*
X192540872Y36297669D01*
X192547712Y36251559D01*
X192549999Y36205001D01*
X192549999Y34555001D01*
X192547712Y34508443D01*
X192540872Y34462333D01*
X192529546Y34417116D01*
X192513842Y34373226D01*
X192493912Y34331088D01*
X192469947Y34291105D01*
X192442179Y34253664D01*
X192410875Y34219125D01*
X192376336Y34187821D01*
X192338895Y34160053D01*
X192298912Y34136088D01*
X192256774Y34116158D01*
X192212884Y34100454D01*
X192167667Y34089128D01*
X192121557Y34082288D01*
X192074999Y34080001D01*
X191124999Y34080001D01*
X191078441Y34082288D01*
X191032331Y34089128D01*
X190987114Y34100454D01*
X190943224Y34116158D01*
X190901086Y34136088D01*
X190861103Y34160053D01*
X190823662Y34187821D01*
X190789123Y34219125D01*
X190757819Y34253664D01*
X190730051Y34291105D01*
X190706086Y34331088D01*
X190686156Y34373226D01*
X190670452Y34417116D01*
X190659126Y34462333D01*
X190652286Y34508443D01*
X190649999Y34555001D01*
X190649999Y36205001D01*
X190652286Y36251559D01*
X190659126Y36297669D01*
X190670452Y36342886D01*
X190686156Y36386776D01*
X190706086Y36428914D01*
X190730051Y36468897D01*
X190757819Y36506338D01*
X190789123Y36540877D01*
X190823662Y36572181D01*
X190861103Y36599949D01*
X190901086Y36623914D01*
X190943224Y36643844D01*
X190987114Y36659548D01*
X191032331Y36670874D01*
X191078441Y36677714D01*
X191124999Y36680001D01*
X192074999Y36680001D01*
X192121557Y36677714D01*
G37*
D25*
X184449999Y34880001D03*
X188449999Y34880001D03*
G04 #@! TD*
D26*
G04 #@! TO.C,Q100*
X156679943Y91649516D03*
D27*
X156679943Y89109516D03*
G04 #@! TD*
D28*
G04 #@! TO.C,J6*
X140425000Y34380000D03*
X140425000Y36380000D03*
X140425000Y38380000D03*
X140425000Y40380000D03*
X140425000Y42380000D03*
D24*
G36*
X141199340Y45178395D02*
G01*
X141231698Y45173595D01*
X141263429Y45165647D01*
X141294229Y45154627D01*
X141323800Y45140641D01*
X141351857Y45123823D01*
X141378132Y45104337D01*
X141402369Y45082369D01*
X141424337Y45058132D01*
X141443823Y45031857D01*
X141460641Y45003800D01*
X141474627Y44974229D01*
X141485647Y44943429D01*
X141493595Y44911698D01*
X141498395Y44879340D01*
X141500000Y44846668D01*
X141500000Y43913332D01*
X141498395Y43880660D01*
X141493595Y43848302D01*
X141485647Y43816571D01*
X141474627Y43785771D01*
X141460641Y43756200D01*
X141443823Y43728143D01*
X141424337Y43701868D01*
X141402369Y43677631D01*
X141378132Y43655663D01*
X141351857Y43636177D01*
X141323800Y43619359D01*
X141294229Y43605373D01*
X141263429Y43594353D01*
X141231698Y43586405D01*
X141199340Y43581605D01*
X141166668Y43580000D01*
X139683332Y43580000D01*
X139650660Y43581605D01*
X139618302Y43586405D01*
X139586571Y43594353D01*
X139555771Y43605373D01*
X139526200Y43619359D01*
X139498143Y43636177D01*
X139471868Y43655663D01*
X139447631Y43677631D01*
X139425663Y43701868D01*
X139406177Y43728143D01*
X139389359Y43756200D01*
X139375373Y43785771D01*
X139364353Y43816571D01*
X139356405Y43848302D01*
X139351605Y43880660D01*
X139350000Y43913332D01*
X139350000Y44846668D01*
X139351605Y44879340D01*
X139356405Y44911698D01*
X139364353Y44943429D01*
X139375373Y44974229D01*
X139389359Y45003800D01*
X139406177Y45031857D01*
X139425663Y45058132D01*
X139447631Y45082369D01*
X139471868Y45104337D01*
X139498143Y45123823D01*
X139526200Y45140641D01*
X139555771Y45154627D01*
X139586571Y45165647D01*
X139618302Y45173595D01*
X139650660Y45178395D01*
X139683332Y45180000D01*
X141166668Y45180000D01*
X141199340Y45178395D01*
G37*
G04 #@! TD*
D28*
G04 #@! TO.C,J3*
X165424999Y23380001D03*
X165424999Y21380001D03*
X165424999Y19380001D03*
D24*
G36*
X166199339Y18178396D02*
G01*
X166231697Y18173596D01*
X166263428Y18165648D01*
X166294228Y18154628D01*
X166323799Y18140642D01*
X166351856Y18123824D01*
X166378131Y18104338D01*
X166402368Y18082370D01*
X166424336Y18058133D01*
X166443822Y18031858D01*
X166460640Y18003801D01*
X166474626Y17974230D01*
X166485646Y17943430D01*
X166493594Y17911699D01*
X166498394Y17879341D01*
X166499999Y17846669D01*
X166499999Y16913333D01*
X166498394Y16880661D01*
X166493594Y16848303D01*
X166485646Y16816572D01*
X166474626Y16785772D01*
X166460640Y16756201D01*
X166443822Y16728144D01*
X166424336Y16701869D01*
X166402368Y16677632D01*
X166378131Y16655664D01*
X166351856Y16636178D01*
X166323799Y16619360D01*
X166294228Y16605374D01*
X166263428Y16594354D01*
X166231697Y16586406D01*
X166199339Y16581606D01*
X166166667Y16580001D01*
X164683331Y16580001D01*
X164650659Y16581606D01*
X164618301Y16586406D01*
X164586570Y16594354D01*
X164555770Y16605374D01*
X164526199Y16619360D01*
X164498142Y16636178D01*
X164471867Y16655664D01*
X164447630Y16677632D01*
X164425662Y16701869D01*
X164406176Y16728144D01*
X164389358Y16756201D01*
X164375372Y16785772D01*
X164364352Y16816572D01*
X164356404Y16848303D01*
X164351604Y16880661D01*
X164349999Y16913333D01*
X164349999Y17846669D01*
X164351604Y17879341D01*
X164356404Y17911699D01*
X164364352Y17943430D01*
X164375372Y17974230D01*
X164389358Y18003801D01*
X164406176Y18031858D01*
X164425662Y18058133D01*
X164447630Y18082370D01*
X164471867Y18104338D01*
X164498142Y18123824D01*
X164526199Y18140642D01*
X164555770Y18154628D01*
X164586570Y18165648D01*
X164618301Y18173596D01*
X164650659Y18178396D01*
X164683331Y18180001D01*
X166166667Y18180001D01*
X166199339Y18178396D01*
G37*
G04 #@! TD*
D28*
G04 #@! TO.C,J2*
X140425000Y19380000D03*
X140425000Y21380000D03*
X140425000Y23380000D03*
D24*
G36*
X141199340Y26178395D02*
G01*
X141231698Y26173595D01*
X141263429Y26165647D01*
X141294229Y26154627D01*
X141323800Y26140641D01*
X141351857Y26123823D01*
X141378132Y26104337D01*
X141402369Y26082369D01*
X141424337Y26058132D01*
X141443823Y26031857D01*
X141460641Y26003800D01*
X141474627Y25974229D01*
X141485647Y25943429D01*
X141493595Y25911698D01*
X141498395Y25879340D01*
X141500000Y25846668D01*
X141500000Y24913332D01*
X141498395Y24880660D01*
X141493595Y24848302D01*
X141485647Y24816571D01*
X141474627Y24785771D01*
X141460641Y24756200D01*
X141443823Y24728143D01*
X141424337Y24701868D01*
X141402369Y24677631D01*
X141378132Y24655663D01*
X141351857Y24636177D01*
X141323800Y24619359D01*
X141294229Y24605373D01*
X141263429Y24594353D01*
X141231698Y24586405D01*
X141199340Y24581605D01*
X141166668Y24580000D01*
X139683332Y24580000D01*
X139650660Y24581605D01*
X139618302Y24586405D01*
X139586571Y24594353D01*
X139555771Y24605373D01*
X139526200Y24619359D01*
X139498143Y24636177D01*
X139471868Y24655663D01*
X139447631Y24677631D01*
X139425663Y24701868D01*
X139406177Y24728143D01*
X139389359Y24756200D01*
X139375373Y24785771D01*
X139364353Y24816571D01*
X139356405Y24848302D01*
X139351605Y24880660D01*
X139350000Y24913332D01*
X139350000Y25846668D01*
X139351605Y25879340D01*
X139356405Y25911698D01*
X139364353Y25943429D01*
X139375373Y25974229D01*
X139389359Y26003800D01*
X139406177Y26031857D01*
X139425663Y26058132D01*
X139447631Y26082369D01*
X139471868Y26104337D01*
X139498143Y26123823D01*
X139526200Y26140641D01*
X139555771Y26154627D01*
X139586571Y26165647D01*
X139618302Y26173595D01*
X139650660Y26178395D01*
X139683332Y26180000D01*
X141166668Y26180000D01*
X141199340Y26178395D01*
G37*
G04 #@! TD*
D27*
G04 #@! TO.C,Q1*
X148424943Y92919516D03*
D26*
X148424943Y90379516D03*
X148424943Y87839516D03*
G04 #@! TD*
M02*
