M48
; DRILL file {KiCad (5.1.5)-3} date 2020/04/28 7:28:35
; FORMAT={-:-/ absolute / inch / decimal}
; #@! TF.CreationDate,2020-04-28T07:28:35+09:00
; #@! TF.GenerationSoftware,Kicad,Pcbnew,(5.1.5)-3
; #@! TF.FileFunction,NonPlated,1,2,NPTH
FMAT,2
INCH
T1C0.0256
T2C0.0441
T3C0.0472
T4C0.1063
T5C0.1181
T6C0.1339
T7C0.1535
T8C0.1570
T9C0.1575
%
G90
G05
T1
X0.6181Y1.615
X0.6181Y1.3874
T2
X4.6211Y0.9402
X4.7785Y0.9402
X7.2618Y1.3732
X7.4193Y1.3732
X4.623Y1.452
X4.7805Y1.452
T3
X0.7377Y2.0543
X10.7955Y2.7236
X6.4943Y1.9756
X10.7955Y1.9756
X5.136Y2.0543
X4.014Y2.0543
X8.5514Y1.9756
X7.6163Y1.9756
X2.8919Y2.0543
X10.0474Y1.9756
X1.7699Y2.0543
X9.2994Y1.9756
X11.5435Y1.9756
T4
X4.9567Y4.8675
X12.5984Y4.7394
X12.5984Y1.7965
X0.5376Y4.6212
X4.9567Y1.8752
X0.5376Y1.8757
X7.0837Y1.7965
X7.0837Y4.7294
T5
X11.9858Y4.4795
X11.9858Y3.5425
X0.8474Y3.2427
X1.7844Y3.2427
T6
X11.001Y2.889
X6.6998Y2.1409
X11.001Y2.1409
X5.3415Y2.2197
X4.2195Y2.2197
X8.7569Y2.1409
X7.8219Y2.1409
X3.0974Y2.2197
X10.253Y2.1409
X1.9754Y2.2197
X9.5049Y2.1409
X11.749Y2.1409
X0.9432Y2.2197
T7
X12.5858Y4.4795
X12.5858Y3.5425
X0.8474Y2.6427
X1.7844Y2.6427
T8
X2.1427Y3.7157
X4.2293Y4.4638
X9.3474Y5.1331
X8.2057Y4.385
X11.1978Y4.385
X7.2608Y2.889
X1.5915Y5.2118
X4.9774Y4.4638
X7.6545Y3.637
X2.5364Y2.9677
X10.4498Y4.385
X4.5837Y5.2118
X5.5285Y2.9677
X12.3396Y5.1331
X2.7333Y4.4638
X4.0325Y2.9677
X8.4026Y3.637
X2.3396Y5.2118
X11.749Y2.889
X11.5915Y5.1331
X2.8907Y3.7157
X1.9852Y4.4638
X7.1033Y5.1331
X3.2844Y2.9677
X8.0089Y2.889
X10.8435Y5.1331
X5.1348Y3.7157
X3.8356Y5.2118
X6.9065Y3.637
X8.5994Y5.1331
X11.3947Y3.637
X8.7569Y2.889
X4.7805Y2.9677
X10.6467Y3.637
X5.3317Y5.2118
X3.6388Y3.7157
X6.7096Y4.385
X10.0955Y5.1331
X9.5049Y2.889
X9.1506Y3.637
X10.253Y2.889
X3.0876Y5.2118
X0.8435Y5.2118
X3.4813Y4.4638
X4.3868Y3.7157
X7.4577Y4.385
X7.8514Y5.1331
X8.9537Y4.385
X9.7018Y4.385
X9.8986Y3.637
X6.5128Y2.889
T9
X1.0404Y4.4638
X1.1191Y3.7157
X12.2608Y4.011
X1.3159Y2.9677
T0
M30
