G04 #@! TF.GenerationSoftware,KiCad,Pcbnew,(5.1.4)-1*
G04 #@! TF.CreationDate,2020-03-09T13:06:10+09:00*
G04 #@! TF.ProjectId,skc03,736b6330-332e-46b6-9963-61645f706362,03*
G04 #@! TF.SameCoordinates,PX7565b60PY115170f0*
G04 #@! TF.FileFunction,Legend,Top*
G04 #@! TF.FilePolarity,Positive*
%FSLAX46Y46*%
G04 Gerber Fmt 4.6, Leading zero omitted, Abs format (unit mm)*
G04 Created by KiCad (PCBNEW (5.1.4)-1) date 2020-03-09 13:06:10*
%MOMM*%
%LPD*%
G04 APERTURE LIST*
%ADD10C,0.100000*%
%ADD11C,0.120000*%
%ADD12C,1.000000*%
%ADD13C,0.150000*%
G04 APERTURE END LIST*
D10*
X160228499Y7380001D02*
X320228499Y7380001D01*
X156228499Y73830000D02*
X156228499Y78380000D01*
X9424988Y14702327D02*
X9424987Y137379276D01*
X324228499Y11380001D02*
G75*
G02X320228499Y7380001I-4000000J0D01*
G01*
X144422749Y127380726D02*
X144422749Y137379276D01*
X171417299Y135380001D02*
G75*
G02X175417299Y139380001I4000000J0D01*
G01*
X171417299Y135380001D02*
X171417299Y124380000D01*
X13424987Y141379275D02*
X140422750Y141379275D01*
X171417299Y124380000D02*
G75*
G02X167417299Y120380000I-4000000J0D01*
G01*
X320228499Y139380001D02*
G75*
G02X324228499Y135380001I0J-4000000D01*
G01*
X324228499Y11380001D02*
X324228499Y135380001D01*
X165424999Y120380001D02*
X167417299Y120380001D01*
X161425000Y116380001D02*
G75*
G02X165424999Y120380000I3999999J0D01*
G01*
X320228499Y139380001D02*
X175417299Y139380000D01*
X9424988Y137379276D02*
G75*
G02X13424987Y141379275I3999999J0D01*
G01*
X140422750Y141379275D02*
G75*
G02X144422749Y137379276I0J-3999999D01*
G01*
X137476198Y102095543D02*
G75*
G02X135423087Y105589770I1946889J3494227D01*
G01*
X161424999Y106380001D02*
X161425000Y116380001D01*
X163924999Y102671902D02*
G75*
G02X161424999Y106380001I1500000J3708099D01*
G01*
X163925000Y102671900D02*
G75*
G02X166424999Y98963802I-1500000J-3708098D01*
G01*
X166424999Y86380000D02*
X166424999Y98963802D01*
X166424999Y86380000D02*
G75*
G02X162424999Y82380000I-4000000J0D01*
G01*
X160228499Y82380000D02*
X162424999Y82380000D01*
X156228499Y78380000D02*
G75*
G02X160228499Y82380000I4000000J0D01*
G01*
X156228499Y11380001D02*
X156228499Y73830000D01*
X149424988Y80899507D02*
X149424988Y13379275D01*
X149424988Y80899506D02*
G75*
G02X153424976Y84899507I4000000J1D01*
G01*
X157294948Y84899519D02*
X153424976Y84899507D01*
X159294942Y86899517D02*
G75*
G02X157294948Y84899519I-1999999J1D01*
G01*
X159294943Y93859517D02*
X159294943Y86899518D01*
X157294943Y95859517D02*
G75*
G02X159294943Y93859517I0J-2000000D01*
G01*
X143119168Y95859515D02*
X157294942Y95859517D01*
X143119169Y95859515D02*
G75*
G02X139140013Y99451681I-1J4000000D01*
G01*
X138949998Y100325416D02*
G75*
G02X139140013Y99451681I-3789139J-1281568D01*
G01*
X137476198Y102095543D02*
G75*
G02X138949998Y100325416I-1557511J-2795381D01*
G01*
X156247761Y10987932D02*
X156228499Y11380001D01*
X156305358Y10599639D02*
X156247761Y10987932D01*
X156400738Y10218862D02*
X156305358Y10599639D01*
X156532981Y9849267D02*
X156400738Y10218862D01*
X156700814Y9494414D02*
X156532981Y9849267D01*
X156902621Y9157720D02*
X156700814Y9494414D01*
X157136458Y8842427D02*
X156902621Y9157720D01*
X157400072Y8551573D02*
X157136458Y8842427D01*
X157690926Y8287959D02*
X157400072Y8551573D01*
X158006219Y8054122D02*
X157690926Y8287959D01*
X158342913Y7852315D02*
X158006219Y8054122D01*
X158697766Y7684482D02*
X158342913Y7852315D01*
X159067361Y7552239D02*
X158697766Y7684482D01*
X159448138Y7456859D02*
X159067361Y7552239D01*
X159836431Y7399262D02*
X159448138Y7456859D01*
X160228499Y7380001D02*
X159836431Y7399262D01*
X149424988Y13379275D02*
G75*
G02X145424988Y9379275I-4000000J0D01*
G01*
X135423087Y119380727D02*
X135423087Y105589770D01*
X135423088Y119380727D02*
G75*
G02X139423087Y123380726I3999999J0D01*
G01*
X140422750Y123380727D02*
X139423087Y123380726D01*
X144422749Y127380726D02*
G75*
G02X140422750Y123380727I-3999999J0D01*
G01*
X145424988Y9379275D02*
X13424987Y9379275D01*
X9424987Y13379275D02*
X9424988Y14702327D01*
X13424987Y9379275D02*
G75*
G02X9424987Y13379275I0J4000000D01*
G01*
D11*
G04 #@! TO.C,SW39*
X288624999Y139365001D02*
X288624999Y120125001D01*
X288624999Y120125001D02*
X295424999Y120125001D01*
X295424999Y139365001D02*
X295424999Y120125001D01*
X288624999Y139365001D02*
X295424999Y139365001D01*
X312424999Y139365001D02*
X312424999Y120125001D01*
X312424999Y120125001D02*
X319224999Y120125001D01*
X319224999Y139365001D02*
X319224999Y120125001D01*
X312424999Y139365001D02*
X319224999Y139365001D01*
D12*
X294924999Y121880001D02*
X312924999Y121880001D01*
D13*
X297924999Y123380001D02*
X296924999Y123380001D01*
X296924999Y124380001D02*
X296924999Y123380001D01*
X310924999Y137380001D02*
X309924999Y137380001D01*
X310924999Y136380001D02*
X310924999Y137380001D01*
X310924999Y123380001D02*
X310924999Y124380001D01*
X309924999Y123380001D02*
X310924999Y123380001D01*
X296924999Y137380001D02*
X297924999Y137380001D01*
X296924999Y136380001D02*
X296924999Y137380001D01*
G04 #@! TO.C,SW69*
X291424999Y61380001D02*
X291424999Y59380001D01*
X293424999Y61380001D02*
X291424999Y61380001D01*
X291424999Y47380001D02*
X293424999Y47380001D01*
X291424999Y49380001D02*
X291424999Y47380001D01*
X305424999Y47380001D02*
X303424999Y47380001D01*
X305424999Y49380001D02*
X305424999Y47380001D01*
X305424999Y61380001D02*
X305424999Y59380001D01*
X303424999Y61380001D02*
X305424999Y61380001D01*
G04 #@! TO.C,SW66*
X215424999Y61380001D02*
X215424999Y59380001D01*
X217424999Y61380001D02*
X215424999Y61380001D01*
X215424999Y47380001D02*
X217424999Y47380001D01*
X215424999Y49380001D02*
X215424999Y47380001D01*
X229424999Y47380001D02*
X227424999Y47380001D01*
X229424999Y49380001D02*
X229424999Y47380001D01*
X229424999Y61380001D02*
X229424999Y59380001D01*
X227424999Y61380001D02*
X229424999Y61380001D01*
G04 #@! TO.C,SW70*
X272424999Y61380001D02*
X272424999Y59380001D01*
X274424999Y61380001D02*
X272424999Y61380001D01*
X272424999Y47380001D02*
X274424999Y47380001D01*
X272424999Y49380001D02*
X272424999Y47380001D01*
X286424999Y47380001D02*
X284424999Y47380001D01*
X286424999Y49380001D02*
X286424999Y47380001D01*
X286424999Y61380001D02*
X286424999Y59380001D01*
X284424999Y61380001D02*
X286424999Y61380001D01*
G04 #@! TO.C,SW61*
X272424999Y80380001D02*
X272424999Y78380001D01*
X274424999Y80380001D02*
X272424999Y80380001D01*
X272424999Y66380001D02*
X274424999Y66380001D01*
X272424999Y68380001D02*
X272424999Y66380001D01*
X286424999Y66380001D02*
X284424999Y66380001D01*
X286424999Y68380001D02*
X286424999Y66380001D01*
X286424999Y80380001D02*
X286424999Y78380001D01*
X284424999Y80380001D02*
X286424999Y80380001D01*
G04 #@! TO.C,SW68*
X253424999Y61380001D02*
X253424999Y59380001D01*
X255424999Y61380001D02*
X253424999Y61380001D01*
X253424999Y47380001D02*
X255424999Y47380001D01*
X253424999Y49380001D02*
X253424999Y47380001D01*
X267424999Y47380001D02*
X265424999Y47380001D01*
X267424999Y49380001D02*
X267424999Y47380001D01*
X267424999Y61380001D02*
X267424999Y59380001D01*
X265424999Y61380001D02*
X267424999Y61380001D01*
G04 #@! TO.C,SW67*
X234424999Y61380001D02*
X234424999Y59380001D01*
X236424999Y61380001D02*
X234424999Y61380001D01*
X234424999Y47380001D02*
X236424999Y47380001D01*
X234424999Y49380001D02*
X234424999Y47380001D01*
X248424999Y47380001D02*
X246424999Y47380001D01*
X248424999Y49380001D02*
X248424999Y47380001D01*
X248424999Y61380001D02*
X248424999Y59380001D01*
X246424999Y61380001D02*
X248424999Y61380001D01*
G04 #@! TO.C,SW28*
X71675000Y63380000D02*
X71675000Y61380000D01*
X73675000Y63380000D02*
X71675000Y63380000D01*
X71675000Y49380000D02*
X73675000Y49380000D01*
X71675000Y51380000D02*
X71675000Y49380000D01*
X85675000Y49380000D02*
X83675000Y49380000D01*
X85675000Y51380000D02*
X85675000Y49380000D01*
X85675000Y63380000D02*
X85675000Y61380000D01*
X83675000Y63380000D02*
X85675000Y63380000D01*
G04 #@! TO.C,SW29*
X100175000Y63380000D02*
X100175000Y61380000D01*
X102175000Y63380000D02*
X100175000Y63380000D01*
X100175000Y49380000D02*
X102175000Y49380000D01*
X100175000Y51380000D02*
X100175000Y49380000D01*
X114175000Y49380000D02*
X112175000Y49380000D01*
X114175000Y51380000D02*
X114175000Y49380000D01*
X114175000Y63380000D02*
X114175000Y61380000D01*
X112175000Y63380000D02*
X114175000Y63380000D01*
G04 #@! TO.C,SW27*
X43175000Y63380000D02*
X43175000Y61380000D01*
X45175000Y63380000D02*
X43175000Y63380000D01*
X43175000Y49380000D02*
X45175000Y49380000D01*
X43175000Y51380000D02*
X43175000Y49380000D01*
X57175000Y49380000D02*
X55175000Y49380000D01*
X57175000Y51380000D02*
X57175000Y49380000D01*
X57175000Y63380000D02*
X57175000Y61380000D01*
X55175000Y63380000D02*
X57175000Y63380000D01*
G04 #@! TO.C,SW65*
X191674999Y61380001D02*
X191674999Y59380001D01*
X193674999Y61380001D02*
X191674999Y61380001D01*
X191674999Y47380001D02*
X193674999Y47380001D01*
X191674999Y49380001D02*
X191674999Y47380001D01*
X205674999Y47380001D02*
X203674999Y47380001D01*
X205674999Y49380001D02*
X205674999Y47380001D01*
X205674999Y61380001D02*
X205674999Y59380001D01*
X203674999Y61380001D02*
X205674999Y61380001D01*
G04 #@! TO.C,SW64*
X163174999Y61380001D02*
X163174999Y59380001D01*
X165174999Y61380001D02*
X163174999Y61380001D01*
X163174999Y47380001D02*
X165174999Y47380001D01*
X163174999Y49380001D02*
X163174999Y47380001D01*
X177174999Y47380001D02*
X175174999Y47380001D01*
X177174999Y49380001D02*
X177174999Y47380001D01*
X177174999Y61380001D02*
X177174999Y59380001D01*
X175174999Y61380001D02*
X177174999Y61380001D01*
G04 #@! TO.C,SW30*
X128675000Y63380000D02*
X128675000Y61380000D01*
X130675000Y63380000D02*
X128675000Y63380000D01*
X128675000Y49380000D02*
X130675000Y49380000D01*
X128675000Y51380000D02*
X128675000Y49380000D01*
X142675000Y49380000D02*
X140675000Y49380000D01*
X142675000Y51380000D02*
X142675000Y49380000D01*
X142675000Y63380000D02*
X142675000Y61380000D01*
X140675000Y63380000D02*
X142675000Y63380000D01*
G04 #@! TO.C,SW26*
X16956960Y63380000D02*
X16956960Y61380000D01*
X18956960Y63380000D02*
X16956960Y63380000D01*
X16956960Y49380000D02*
X18956960Y49380000D01*
X16956960Y51380000D02*
X16956960Y49380000D01*
X30956960Y49380000D02*
X28956960Y49380000D01*
X30956960Y51380000D02*
X30956960Y49380000D01*
X30956960Y63380000D02*
X30956960Y61380000D01*
X28956960Y63380000D02*
X30956960Y63380000D01*
D11*
G04 #@! TO.C,SW20*
X41925000Y84365000D02*
X41925000Y65125000D01*
X41925000Y65125000D02*
X48725000Y65125000D01*
X48725000Y84365000D02*
X48725000Y65125000D01*
X41925000Y84365000D02*
X48725000Y84365000D01*
X18125000Y84365000D02*
X18125000Y65125000D01*
X24925000Y65125000D02*
X18125000Y65125000D01*
X24925000Y84365000D02*
X24925000Y65125000D01*
X18125000Y84365000D02*
X24925000Y84365000D01*
D12*
X24425000Y66880000D02*
X42425000Y66880000D01*
D13*
X27425000Y68380000D02*
X26425000Y68380000D01*
X26425000Y69380000D02*
X26425000Y68380000D01*
X40425000Y82380000D02*
X39425000Y82380000D01*
X40425000Y81380000D02*
X40425000Y82380000D01*
X40425000Y68380000D02*
X40425000Y69380000D01*
X39425000Y68380000D02*
X40425000Y68380000D01*
X26425000Y82380000D02*
X27425000Y82380000D01*
X26425000Y81380000D02*
X26425000Y82380000D01*
D11*
G04 #@! TO.C,SW54*
X309924999Y101365001D02*
X309924999Y82125001D01*
X309924999Y82125001D02*
X316724999Y82125001D01*
X316724999Y101365001D02*
X316724999Y82125001D01*
X309924999Y101365001D02*
X316724999Y101365001D01*
X286124999Y101365001D02*
X286124999Y82125001D01*
X292924999Y82125001D02*
X286124999Y82125001D01*
X292924999Y101365001D02*
X292924999Y82125001D01*
X286124999Y101365001D02*
X292924999Y101365001D01*
D12*
X292424999Y83880001D02*
X310424999Y83880001D01*
D13*
X295424999Y85380001D02*
X294424999Y85380001D01*
X294424999Y86380001D02*
X294424999Y85380001D01*
X308424999Y99380001D02*
X307424999Y99380001D01*
X308424999Y98380001D02*
X308424999Y99380001D01*
X308424999Y85380001D02*
X308424999Y86380001D01*
X307424999Y85380001D02*
X308424999Y85380001D01*
X294424999Y99380001D02*
X295424999Y99380001D01*
X294424999Y98380001D02*
X294424999Y99380001D01*
G04 #@! TO.C,SW14*
X22425000Y87380000D02*
X21425000Y87380000D01*
X21425000Y88380000D02*
X21425000Y87380000D01*
X35425000Y101380000D02*
X34425000Y101380000D01*
X35425000Y100380000D02*
X35425000Y101380000D01*
X35425000Y87380000D02*
X35425000Y88380000D01*
X34425000Y87380000D02*
X35425000Y87380000D01*
X21425000Y101380000D02*
X22425000Y101380000D01*
X21425000Y100380000D02*
X21425000Y101380000D01*
G04 #@! TO.C,SW47*
X302424999Y104380001D02*
X301424999Y104380001D01*
X301424999Y105380001D02*
X301424999Y104380001D01*
X315424999Y118380001D02*
X314424999Y118380001D01*
X315424999Y117380001D02*
X315424999Y118380001D01*
X315424999Y104380001D02*
X315424999Y105380001D01*
X314424999Y104380001D02*
X315424999Y104380001D01*
X301424999Y118380001D02*
X302424999Y118380001D01*
X301424999Y117380001D02*
X301424999Y118380001D01*
G04 #@! TO.C,SW8*
X20425000Y106380000D02*
X19425000Y106380000D01*
X19425000Y107380000D02*
X19425000Y106380000D01*
X33425000Y120380000D02*
X32425000Y120380000D01*
X33425000Y119380000D02*
X33425000Y120380000D01*
X33425000Y106380000D02*
X33425000Y107380000D01*
X32425000Y106380000D02*
X33425000Y106380000D01*
X19425000Y120380000D02*
X20425000Y120380000D01*
X19425000Y119380000D02*
X19425000Y120380000D01*
G04 #@! TO.C,SW3*
X53425000Y125380000D02*
X52425000Y125380000D01*
X52425000Y126380000D02*
X52425000Y125380000D01*
X66425000Y139380000D02*
X65425000Y139380000D01*
X66425000Y138380000D02*
X66425000Y139380000D01*
X66425000Y125380000D02*
X66425000Y126380000D01*
X65425000Y125380000D02*
X66425000Y125380000D01*
X52425000Y139380000D02*
X53425000Y139380000D01*
X52425000Y138380000D02*
X52425000Y139380000D01*
G04 #@! TO.C,SW19*
X124425000Y87380000D02*
X123425000Y87380000D01*
X123425000Y88380000D02*
X123425000Y87380000D01*
X137425000Y101380000D02*
X136425000Y101380000D01*
X137425000Y100380000D02*
X137425000Y101380000D01*
X137425000Y87380000D02*
X137425000Y88380000D01*
X136425000Y87380000D02*
X137425000Y87380000D01*
X123425000Y101380000D02*
X124425000Y101380000D01*
X123425000Y100380000D02*
X123425000Y101380000D01*
G04 #@! TO.C,SW6*
X110425000Y125380000D02*
X109425000Y125380000D01*
X109425000Y126380000D02*
X109425000Y125380000D01*
X123425000Y139380000D02*
X122425000Y139380000D01*
X123425000Y138380000D02*
X123425000Y139380000D01*
X123425000Y125380000D02*
X123425000Y126380000D01*
X122425000Y125380000D02*
X123425000Y125380000D01*
X109425000Y139380000D02*
X110425000Y139380000D01*
X109425000Y138380000D02*
X109425000Y139380000D01*
G04 #@! TO.C,SW24*
X115425000Y68380000D02*
X114425000Y68380000D01*
X114425000Y69380000D02*
X114425000Y68380000D01*
X128425000Y82380000D02*
X127425000Y82380000D01*
X128425000Y81380000D02*
X128425000Y82380000D01*
X128425000Y68380000D02*
X128425000Y69380000D01*
X127425000Y68380000D02*
X128425000Y68380000D01*
X114425000Y82380000D02*
X115425000Y82380000D01*
X114425000Y81380000D02*
X114425000Y82380000D01*
G04 #@! TO.C,SW44*
X240424999Y104380001D02*
X239424999Y104380001D01*
X239424999Y105380001D02*
X239424999Y104380001D01*
X253424999Y118380001D02*
X252424999Y118380001D01*
X253424999Y117380001D02*
X253424999Y118380001D01*
X253424999Y104380001D02*
X253424999Y105380001D01*
X252424999Y104380001D02*
X253424999Y104380001D01*
X239424999Y118380001D02*
X240424999Y118380001D01*
X239424999Y117380001D02*
X239424999Y118380001D01*
G04 #@! TO.C,SW62*
X292424999Y66380001D02*
X291424999Y66380001D01*
X291424999Y67380001D02*
X291424999Y66380001D01*
X305424999Y80380001D02*
X304424999Y80380001D01*
X305424999Y79380001D02*
X305424999Y80380001D01*
X305424999Y66380001D02*
X305424999Y67380001D01*
X304424999Y66380001D02*
X305424999Y66380001D01*
X291424999Y80380001D02*
X292424999Y80380001D01*
X291424999Y79380001D02*
X291424999Y80380001D01*
G04 #@! TO.C,SW60*
X254424999Y66380001D02*
X253424999Y66380001D01*
X253424999Y67380001D02*
X253424999Y66380001D01*
X267424999Y80380001D02*
X266424999Y80380001D01*
X267424999Y79380001D02*
X267424999Y80380001D01*
X267424999Y66380001D02*
X267424999Y67380001D01*
X266424999Y66380001D02*
X267424999Y66380001D01*
X253424999Y80380001D02*
X254424999Y80380001D01*
X253424999Y79380001D02*
X253424999Y80380001D01*
G04 #@! TO.C,SW25*
X134425000Y68380000D02*
X133425000Y68380000D01*
X133425000Y69380000D02*
X133425000Y68380000D01*
X147425000Y82380000D02*
X146425000Y82380000D01*
X147425000Y81380000D02*
X147425000Y82380000D01*
X147425000Y68380000D02*
X147425000Y69380000D01*
X146425000Y68380000D02*
X147425000Y68380000D01*
X133425000Y82380000D02*
X134425000Y82380000D01*
X133425000Y81380000D02*
X133425000Y82380000D01*
G04 #@! TO.C,SW38*
X269424999Y123380001D02*
X268424999Y123380001D01*
X268424999Y124380001D02*
X268424999Y123380001D01*
X282424999Y137380001D02*
X281424999Y137380001D01*
X282424999Y136380001D02*
X282424999Y137380001D01*
X282424999Y123380001D02*
X282424999Y124380001D01*
X281424999Y123380001D02*
X282424999Y123380001D01*
X268424999Y137380001D02*
X269424999Y137380001D01*
X268424999Y136380001D02*
X268424999Y137380001D01*
G04 #@! TO.C,SW59*
X235424999Y66380001D02*
X234424999Y66380001D01*
X234424999Y67380001D02*
X234424999Y66380001D01*
X248424999Y80380001D02*
X247424999Y80380001D01*
X248424999Y79380001D02*
X248424999Y80380001D01*
X248424999Y66380001D02*
X248424999Y67380001D01*
X247424999Y66380001D02*
X248424999Y66380001D01*
X234424999Y80380001D02*
X235424999Y80380001D01*
X234424999Y79380001D02*
X234424999Y80380001D01*
G04 #@! TO.C,SW58*
X216424999Y66380001D02*
X215424999Y66380001D01*
X215424999Y67380001D02*
X215424999Y66380001D01*
X229424999Y80380001D02*
X228424999Y80380001D01*
X229424999Y79380001D02*
X229424999Y80380001D01*
X229424999Y66380001D02*
X229424999Y67380001D01*
X228424999Y66380001D02*
X229424999Y66380001D01*
X215424999Y80380001D02*
X216424999Y80380001D01*
X215424999Y79380001D02*
X215424999Y80380001D01*
G04 #@! TO.C,SW57*
X197424999Y66380001D02*
X196424999Y66380001D01*
X196424999Y67380001D02*
X196424999Y66380001D01*
X210424999Y80380001D02*
X209424999Y80380001D01*
X210424999Y79380001D02*
X210424999Y80380001D01*
X210424999Y66380001D02*
X210424999Y67380001D01*
X209424999Y66380001D02*
X210424999Y66380001D01*
X196424999Y80380001D02*
X197424999Y80380001D01*
X196424999Y79380001D02*
X196424999Y80380001D01*
G04 #@! TO.C,SW56*
X178424999Y66380001D02*
X177424999Y66380001D01*
X177424999Y67380001D02*
X177424999Y66380001D01*
X191424999Y80380001D02*
X190424999Y80380001D01*
X191424999Y79380001D02*
X191424999Y80380001D01*
X191424999Y66380001D02*
X191424999Y67380001D01*
X190424999Y66380001D02*
X191424999Y66380001D01*
X177424999Y80380001D02*
X178424999Y80380001D01*
X177424999Y79380001D02*
X177424999Y80380001D01*
G04 #@! TO.C,SW55*
X159424999Y66380001D02*
X158424999Y66380001D01*
X158424999Y67380001D02*
X158424999Y66380001D01*
X172424999Y80380001D02*
X171424999Y80380001D01*
X172424999Y79380001D02*
X172424999Y80380001D01*
X172424999Y66380001D02*
X172424999Y67380001D01*
X171424999Y66380001D02*
X172424999Y66380001D01*
X158424999Y80380001D02*
X159424999Y80380001D01*
X158424999Y79380001D02*
X158424999Y80380001D01*
G04 #@! TO.C,SW53*
X264424999Y85380001D02*
X263424999Y85380001D01*
X263424999Y86380001D02*
X263424999Y85380001D01*
X277424999Y99380001D02*
X276424999Y99380001D01*
X277424999Y98380001D02*
X277424999Y99380001D01*
X277424999Y85380001D02*
X277424999Y86380001D01*
X276424999Y85380001D02*
X277424999Y85380001D01*
X263424999Y99380001D02*
X264424999Y99380001D01*
X263424999Y98380001D02*
X263424999Y99380001D01*
G04 #@! TO.C,SW52*
X245424999Y85380001D02*
X244424999Y85380001D01*
X244424999Y86380001D02*
X244424999Y85380001D01*
X258424999Y99380001D02*
X257424999Y99380001D01*
X258424999Y98380001D02*
X258424999Y99380001D01*
X258424999Y85380001D02*
X258424999Y86380001D01*
X257424999Y85380001D02*
X258424999Y85380001D01*
X244424999Y99380001D02*
X245424999Y99380001D01*
X244424999Y98380001D02*
X244424999Y99380001D01*
G04 #@! TO.C,SW51*
X226424999Y85380001D02*
X225424999Y85380001D01*
X225424999Y86380001D02*
X225424999Y85380001D01*
X239424999Y99380001D02*
X238424999Y99380001D01*
X239424999Y98380001D02*
X239424999Y99380001D01*
X239424999Y85380001D02*
X239424999Y86380001D01*
X238424999Y85380001D02*
X239424999Y85380001D01*
X225424999Y99380001D02*
X226424999Y99380001D01*
X225424999Y98380001D02*
X225424999Y99380001D01*
G04 #@! TO.C,SW50*
X207424999Y85380001D02*
X206424999Y85380001D01*
X206424999Y86380001D02*
X206424999Y85380001D01*
X220424999Y99380001D02*
X219424999Y99380001D01*
X220424999Y98380001D02*
X220424999Y99380001D01*
X220424999Y85380001D02*
X220424999Y86380001D01*
X219424999Y85380001D02*
X220424999Y85380001D01*
X206424999Y99380001D02*
X207424999Y99380001D01*
X206424999Y98380001D02*
X206424999Y99380001D01*
G04 #@! TO.C,SW49*
X188424999Y85380001D02*
X187424999Y85380001D01*
X187424999Y86380001D02*
X187424999Y85380001D01*
X201424999Y99380001D02*
X200424999Y99380001D01*
X201424999Y98380001D02*
X201424999Y99380001D01*
X201424999Y85380001D02*
X201424999Y86380001D01*
X200424999Y85380001D02*
X201424999Y85380001D01*
X187424999Y99380001D02*
X188424999Y99380001D01*
X187424999Y98380001D02*
X187424999Y99380001D01*
G04 #@! TO.C,SW48*
X169424999Y85380001D02*
X168424999Y85380001D01*
X168424999Y86380001D02*
X168424999Y85380001D01*
X182424999Y99380001D02*
X181424999Y99380001D01*
X182424999Y98380001D02*
X182424999Y99380001D01*
X182424999Y85380001D02*
X182424999Y86380001D01*
X181424999Y85380001D02*
X182424999Y85380001D01*
X168424999Y99380001D02*
X169424999Y99380001D01*
X168424999Y98380001D02*
X168424999Y99380001D01*
G04 #@! TO.C,SW46*
X278424999Y104380001D02*
X277424999Y104380001D01*
X277424999Y105380001D02*
X277424999Y104380001D01*
X291424999Y118380001D02*
X290424999Y118380001D01*
X291424999Y117380001D02*
X291424999Y118380001D01*
X291424999Y104380001D02*
X291424999Y105380001D01*
X290424999Y104380001D02*
X291424999Y104380001D01*
X277424999Y118380001D02*
X278424999Y118380001D01*
X277424999Y117380001D02*
X277424999Y118380001D01*
G04 #@! TO.C,SW45*
X259424999Y104380001D02*
X258424999Y104380001D01*
X258424999Y105380001D02*
X258424999Y104380001D01*
X272424999Y118380001D02*
X271424999Y118380001D01*
X272424999Y117380001D02*
X272424999Y118380001D01*
X272424999Y104380001D02*
X272424999Y105380001D01*
X271424999Y104380001D02*
X272424999Y104380001D01*
X258424999Y118380001D02*
X259424999Y118380001D01*
X258424999Y117380001D02*
X258424999Y118380001D01*
G04 #@! TO.C,SW43*
X221424999Y104380001D02*
X220424999Y104380001D01*
X220424999Y105380001D02*
X220424999Y104380001D01*
X234424999Y118380001D02*
X233424999Y118380001D01*
X234424999Y117380001D02*
X234424999Y118380001D01*
X234424999Y104380001D02*
X234424999Y105380001D01*
X233424999Y104380001D02*
X234424999Y104380001D01*
X220424999Y118380001D02*
X221424999Y118380001D01*
X220424999Y117380001D02*
X220424999Y118380001D01*
G04 #@! TO.C,SW42*
X202424999Y104380001D02*
X201424999Y104380001D01*
X201424999Y105380001D02*
X201424999Y104380001D01*
X215424999Y118380001D02*
X214424999Y118380001D01*
X215424999Y117380001D02*
X215424999Y118380001D01*
X215424999Y104380001D02*
X215424999Y105380001D01*
X214424999Y104380001D02*
X215424999Y104380001D01*
X201424999Y118380001D02*
X202424999Y118380001D01*
X201424999Y117380001D02*
X201424999Y118380001D01*
G04 #@! TO.C,SW41*
X183424999Y104380001D02*
X182424999Y104380001D01*
X182424999Y105380001D02*
X182424999Y104380001D01*
X196424999Y118380001D02*
X195424999Y118380001D01*
X196424999Y117380001D02*
X196424999Y118380001D01*
X196424999Y104380001D02*
X196424999Y105380001D01*
X195424999Y104380001D02*
X196424999Y104380001D01*
X182424999Y118380001D02*
X183424999Y118380001D01*
X182424999Y117380001D02*
X182424999Y118380001D01*
G04 #@! TO.C,SW40*
X164424999Y104380001D02*
X163424999Y104380001D01*
X163424999Y105380001D02*
X163424999Y104380001D01*
X177424999Y118380001D02*
X176424999Y118380001D01*
X177424999Y117380001D02*
X177424999Y118380001D01*
X177424999Y104380001D02*
X177424999Y105380001D01*
X176424999Y104380001D02*
X177424999Y104380001D01*
X163424999Y118380001D02*
X164424999Y118380001D01*
X163424999Y117380001D02*
X163424999Y118380001D01*
G04 #@! TO.C,SW37*
X250424999Y123380001D02*
X249424999Y123380001D01*
X249424999Y124380001D02*
X249424999Y123380001D01*
X263424999Y137380001D02*
X262424999Y137380001D01*
X263424999Y136380001D02*
X263424999Y137380001D01*
X263424999Y123380001D02*
X263424999Y124380001D01*
X262424999Y123380001D02*
X263424999Y123380001D01*
X249424999Y137380001D02*
X250424999Y137380001D01*
X249424999Y136380001D02*
X249424999Y137380001D01*
G04 #@! TO.C,SW36*
X231424999Y123380001D02*
X230424999Y123380001D01*
X230424999Y124380001D02*
X230424999Y123380001D01*
X244424999Y137380001D02*
X243424999Y137380001D01*
X244424999Y136380001D02*
X244424999Y137380001D01*
X244424999Y123380001D02*
X244424999Y124380001D01*
X243424999Y123380001D02*
X244424999Y123380001D01*
X230424999Y137380001D02*
X231424999Y137380001D01*
X230424999Y136380001D02*
X230424999Y137380001D01*
G04 #@! TO.C,SW35*
X212424999Y123380001D02*
X211424999Y123380001D01*
X211424999Y124380001D02*
X211424999Y123380001D01*
X225424999Y137380001D02*
X224424999Y137380001D01*
X225424999Y136380001D02*
X225424999Y137380001D01*
X225424999Y123380001D02*
X225424999Y124380001D01*
X224424999Y123380001D02*
X225424999Y123380001D01*
X211424999Y137380001D02*
X212424999Y137380001D01*
X211424999Y136380001D02*
X211424999Y137380001D01*
G04 #@! TO.C,SW34*
X193424999Y123380001D02*
X192424999Y123380001D01*
X192424999Y124380001D02*
X192424999Y123380001D01*
X206424999Y137380001D02*
X205424999Y137380001D01*
X206424999Y136380001D02*
X206424999Y137380001D01*
X206424999Y123380001D02*
X206424999Y124380001D01*
X205424999Y123380001D02*
X206424999Y123380001D01*
X192424999Y137380001D02*
X193424999Y137380001D01*
X192424999Y136380001D02*
X192424999Y137380001D01*
G04 #@! TO.C,SW33*
X174424999Y123380001D02*
X173424999Y123380001D01*
X173424999Y124380001D02*
X173424999Y123380001D01*
X187424999Y137380001D02*
X186424999Y137380001D01*
X187424999Y136380001D02*
X187424999Y137380001D01*
X187424999Y123380001D02*
X187424999Y124380001D01*
X186424999Y123380001D02*
X187424999Y123380001D01*
X173424999Y137380001D02*
X174424999Y137380001D01*
X173424999Y136380001D02*
X173424999Y137380001D01*
G04 #@! TO.C,SW23*
X96425000Y68380000D02*
X95425000Y68380000D01*
X95425000Y69380000D02*
X95425000Y68380000D01*
X109425000Y82380000D02*
X108425000Y82380000D01*
X109425000Y81380000D02*
X109425000Y82380000D01*
X109425000Y68380000D02*
X109425000Y69380000D01*
X108425000Y68380000D02*
X109425000Y68380000D01*
X95425000Y82380000D02*
X96425000Y82380000D01*
X95425000Y81380000D02*
X95425000Y82380000D01*
G04 #@! TO.C,SW22*
X77425000Y68380000D02*
X76425000Y68380000D01*
X76425000Y69380000D02*
X76425000Y68380000D01*
X90425000Y82380000D02*
X89425000Y82380000D01*
X90425000Y81380000D02*
X90425000Y82380000D01*
X90425000Y68380000D02*
X90425000Y69380000D01*
X89425000Y68380000D02*
X90425000Y68380000D01*
X76425000Y82380000D02*
X77425000Y82380000D01*
X76425000Y81380000D02*
X76425000Y82380000D01*
G04 #@! TO.C,SW21*
X58425000Y68380000D02*
X57425000Y68380000D01*
X57425000Y69380000D02*
X57425000Y68380000D01*
X71425000Y82380000D02*
X70425000Y82380000D01*
X71425000Y81380000D02*
X71425000Y82380000D01*
X71425000Y68380000D02*
X71425000Y69380000D01*
X70425000Y68380000D02*
X71425000Y68380000D01*
X57425000Y82380000D02*
X58425000Y82380000D01*
X57425000Y81380000D02*
X57425000Y82380000D01*
G04 #@! TO.C,SW18*
X105425000Y87380000D02*
X104425000Y87380000D01*
X104425000Y88380000D02*
X104425000Y87380000D01*
X118425000Y101380000D02*
X117425000Y101380000D01*
X118425000Y100380000D02*
X118425000Y101380000D01*
X118425000Y87380000D02*
X118425000Y88380000D01*
X117425000Y87380000D02*
X118425000Y87380000D01*
X104425000Y101380000D02*
X105425000Y101380000D01*
X104425000Y100380000D02*
X104425000Y101380000D01*
G04 #@! TO.C,SW17*
X86425000Y87380000D02*
X85425000Y87380000D01*
X85425000Y88380000D02*
X85425000Y87380000D01*
X99425000Y101380000D02*
X98425000Y101380000D01*
X99425000Y100380000D02*
X99425000Y101380000D01*
X99425000Y87380000D02*
X99425000Y88380000D01*
X98425000Y87380000D02*
X99425000Y87380000D01*
X85425000Y101380000D02*
X86425000Y101380000D01*
X85425000Y100380000D02*
X85425000Y101380000D01*
G04 #@! TO.C,SW16*
X67425000Y87380000D02*
X66425000Y87380000D01*
X66425000Y88380000D02*
X66425000Y87380000D01*
X80425000Y101380000D02*
X79425000Y101380000D01*
X80425000Y100380000D02*
X80425000Y101380000D01*
X80425000Y87380000D02*
X80425000Y88380000D01*
X79425000Y87380000D02*
X80425000Y87380000D01*
X66425000Y101380000D02*
X67425000Y101380000D01*
X66425000Y100380000D02*
X66425000Y101380000D01*
G04 #@! TO.C,SW15*
X48425000Y87380000D02*
X47425000Y87380000D01*
X47425000Y88380000D02*
X47425000Y87380000D01*
X61425000Y101380000D02*
X60425000Y101380000D01*
X61425000Y100380000D02*
X61425000Y101380000D01*
X61425000Y87380000D02*
X61425000Y88380000D01*
X60425000Y87380000D02*
X61425000Y87380000D01*
X47425000Y101380000D02*
X48425000Y101380000D01*
X47425000Y100380000D02*
X47425000Y101380000D01*
G04 #@! TO.C,SW13*
X120425000Y106380000D02*
X119425000Y106380000D01*
X119425000Y107380000D02*
X119425000Y106380000D01*
X133425000Y120380000D02*
X132425000Y120380000D01*
X133425000Y119380000D02*
X133425000Y120380000D01*
X133425000Y106380000D02*
X133425000Y107380000D01*
X132425000Y106380000D02*
X133425000Y106380000D01*
X119425000Y120380000D02*
X120425000Y120380000D01*
X119425000Y119380000D02*
X119425000Y120380000D01*
G04 #@! TO.C,SW12*
X101425000Y106380000D02*
X100425000Y106380000D01*
X100425000Y107380000D02*
X100425000Y106380000D01*
X114425000Y120380000D02*
X113425000Y120380000D01*
X114425000Y119380000D02*
X114425000Y120380000D01*
X114425000Y106380000D02*
X114425000Y107380000D01*
X113425000Y106380000D02*
X114425000Y106380000D01*
X100425000Y120380000D02*
X101425000Y120380000D01*
X100425000Y119380000D02*
X100425000Y120380000D01*
G04 #@! TO.C,SW11*
X82425000Y106380000D02*
X81425000Y106380000D01*
X81425000Y107380000D02*
X81425000Y106380000D01*
X95425000Y120380000D02*
X94425000Y120380000D01*
X95425000Y119380000D02*
X95425000Y120380000D01*
X95425000Y106380000D02*
X95425000Y107380000D01*
X94425000Y106380000D02*
X95425000Y106380000D01*
X81425000Y120380000D02*
X82425000Y120380000D01*
X81425000Y119380000D02*
X81425000Y120380000D01*
G04 #@! TO.C,SW10*
X63425000Y106380000D02*
X62425000Y106380000D01*
X62425000Y107380000D02*
X62425000Y106380000D01*
X76425000Y120380000D02*
X75425000Y120380000D01*
X76425000Y119380000D02*
X76425000Y120380000D01*
X76425000Y106380000D02*
X76425000Y107380000D01*
X75425000Y106380000D02*
X76425000Y106380000D01*
X62425000Y120380000D02*
X63425000Y120380000D01*
X62425000Y119380000D02*
X62425000Y120380000D01*
G04 #@! TO.C,SW9*
X44425000Y106380000D02*
X43425000Y106380000D01*
X43425000Y107380000D02*
X43425000Y106380000D01*
X57425000Y120380000D02*
X56425000Y120380000D01*
X57425000Y119380000D02*
X57425000Y120380000D01*
X57425000Y106380000D02*
X57425000Y107380000D01*
X56425000Y106380000D02*
X57425000Y106380000D01*
X43425000Y120380000D02*
X44425000Y120380000D01*
X43425000Y119380000D02*
X43425000Y120380000D01*
G04 #@! TO.C,SW7*
X129425000Y125380000D02*
X128425000Y125380000D01*
X128425000Y126380000D02*
X128425000Y125380000D01*
X142425000Y139380000D02*
X141425000Y139380000D01*
X142425000Y138380000D02*
X142425000Y139380000D01*
X142425000Y125380000D02*
X142425000Y126380000D01*
X141425000Y125380000D02*
X142425000Y125380000D01*
X128425000Y139380000D02*
X129425000Y139380000D01*
X128425000Y138380000D02*
X128425000Y139380000D01*
G04 #@! TO.C,SW5*
X91425000Y125380000D02*
X90425000Y125380000D01*
X90425000Y126380000D02*
X90425000Y125380000D01*
X104425000Y139380000D02*
X103425000Y139380000D01*
X104425000Y138380000D02*
X104425000Y139380000D01*
X104425000Y125380000D02*
X104425000Y126380000D01*
X103425000Y125380000D02*
X104425000Y125380000D01*
X90425000Y139380000D02*
X91425000Y139380000D01*
X90425000Y138380000D02*
X90425000Y139380000D01*
G04 #@! TO.C,SW4*
X72425000Y125380000D02*
X71425000Y125380000D01*
X71425000Y126380000D02*
X71425000Y125380000D01*
X85425000Y139380000D02*
X84425000Y139380000D01*
X85425000Y138380000D02*
X85425000Y139380000D01*
X85425000Y125380000D02*
X85425000Y126380000D01*
X84425000Y125380000D02*
X85425000Y125380000D01*
X71425000Y139380000D02*
X72425000Y139380000D01*
X71425000Y138380000D02*
X71425000Y139380000D01*
G04 #@! TO.C,SW2*
X34425000Y125380000D02*
X33425000Y125380000D01*
X33425000Y126380000D02*
X33425000Y125380000D01*
X47425000Y139380000D02*
X46425000Y139380000D01*
X47425000Y138380000D02*
X47425000Y139380000D01*
X47425000Y125380000D02*
X47425000Y126380000D01*
X46425000Y125380000D02*
X47425000Y125380000D01*
X33425000Y139380000D02*
X34425000Y139380000D01*
X33425000Y138380000D02*
X33425000Y139380000D01*
G04 #@! TO.C,SW1*
X15425000Y125380000D02*
X14425000Y125380000D01*
X14425000Y126380000D02*
X14425000Y125380000D01*
X28425000Y139380000D02*
X27425000Y139380000D01*
X28425000Y138380000D02*
X28425000Y139380000D01*
X28425000Y125380000D02*
X28425000Y126380000D01*
X27425000Y125380000D02*
X28425000Y125380000D01*
X14425000Y139380000D02*
X15425000Y139380000D01*
X14425000Y138380000D02*
X14425000Y139380000D01*
G04 #@! TO.C,SW31*
X123874998Y21380001D02*
X114874998Y21380001D01*
X114874998Y25380001D02*
X114874998Y26380001D01*
X123874998Y26380001D02*
X114874998Y26380001D01*
X123874998Y26380001D02*
X123874998Y25380001D01*
X121874998Y21880001D02*
X119874998Y21880001D01*
X119874998Y21880001D02*
X119874998Y25880001D01*
X119874998Y25880001D02*
X122374998Y25880001D01*
X122374998Y25880001D02*
X122374998Y21880001D01*
X122374998Y21880001D02*
X121874998Y21880001D01*
G04 #@! TO.C,SW32*
X123925000Y34380000D02*
X114925000Y34380000D01*
X114925000Y38380000D02*
X114925000Y39380000D01*
X123925000Y39380000D02*
X114925000Y39380000D01*
X123925000Y39380000D02*
X123925000Y38380000D01*
X121925000Y34880000D02*
X119925000Y34880000D01*
X119925000Y34880000D02*
X119925000Y38880000D01*
X119925000Y38880000D02*
X122425000Y38880000D01*
X122425000Y38880000D02*
X122425000Y34880000D01*
X122425000Y34880000D02*
X121925000Y34880000D01*
G04 #@! TO.C,SW63*
X181949999Y37380001D02*
X190949999Y37380001D01*
X190949999Y33380001D02*
X190949999Y32380001D01*
X181949999Y32380001D02*
X190949999Y32380001D01*
X181949999Y32380001D02*
X181949999Y33380001D01*
X183949999Y36880001D02*
X185949999Y36880001D01*
X185949999Y36880001D02*
X185949999Y32880001D01*
X185949999Y32880001D02*
X183449999Y32880001D01*
X183449999Y32880001D02*
X183449999Y36880001D01*
X183449999Y36880001D02*
X183949999Y36880001D01*
D11*
G04 #@! TO.C,Q100*
X153758943Y89998516D02*
X154330443Y90887516D01*
X154901943Y89998516D02*
X153758943Y89998516D01*
X154330443Y90887516D02*
X154901943Y89998516D01*
X153758943Y90887516D02*
X154901943Y90887516D01*
X154330443Y89427016D02*
X154330443Y91522516D01*
X155155943Y92411516D02*
X155155943Y92157516D01*
X155663943Y92665516D02*
X155155943Y92411516D01*
X155663943Y92919516D02*
X155663943Y92665516D01*
X155155943Y92157516D02*
X155155943Y90887516D01*
X155155943Y88347516D02*
X155155943Y89871516D01*
X155663943Y88093516D02*
X155155943Y88347516D01*
X157949943Y90379516D02*
X157949943Y87839516D01*
X155663943Y87839516D02*
X155663943Y88093516D01*
X157949943Y87839516D02*
X155663943Y87839516D01*
X157949943Y92919516D02*
X155663943Y92919516D01*
X157949943Y90379516D02*
X157949943Y92919516D01*
X155663943Y89363518D02*
G75*
G02X155663944Y91395515I508000J1015998D01*
G01*
G04 #@! TO.C,Q1*
X149694943Y94189516D02*
X149694943Y86569516D01*
X149694943Y86569516D02*
X147154943Y86569516D01*
X147154943Y94189516D02*
X149694943Y94189516D01*
X147154943Y94189516D02*
X146900943Y94189516D01*
X146900943Y94189516D02*
X146900943Y86569516D01*
X146900943Y86569516D02*
X147154943Y86569516D01*
X147154943Y86569516D02*
X147154943Y89617516D01*
X147154943Y89617516D02*
X147154943Y94189516D01*
G04 #@! TD*
G04 #@! TO.C,SW31*
D13*
X117565474Y19975240D02*
X117708331Y19927621D01*
X117946426Y19927621D01*
X118041664Y19975240D01*
X118089283Y20022859D01*
X118136902Y20118097D01*
X118136902Y20213335D01*
X118089283Y20308573D01*
X118041664Y20356192D01*
X117946426Y20403811D01*
X117755950Y20451430D01*
X117660712Y20499049D01*
X117613093Y20546668D01*
X117565474Y20641906D01*
X117565474Y20737144D01*
X117613093Y20832382D01*
X117660712Y20880001D01*
X117755950Y20927621D01*
X117994045Y20927621D01*
X118136902Y20880001D01*
X118470236Y20927621D02*
X118708331Y19927621D01*
X118898807Y20641906D01*
X119089283Y19927621D01*
X119327378Y20927621D01*
X119613093Y20927621D02*
X120232140Y20927621D01*
X119898807Y20546668D01*
X120041664Y20546668D01*
X120136902Y20499049D01*
X120184521Y20451430D01*
X120232140Y20356192D01*
X120232140Y20118097D01*
X120184521Y20022859D01*
X120136902Y19975240D01*
X120041664Y19927621D01*
X119755950Y19927621D01*
X119660712Y19975240D01*
X119613093Y20022859D01*
X121184521Y19927621D02*
X120613093Y19927621D01*
X120898807Y19927621D02*
X120898807Y20927621D01*
X120803569Y20784763D01*
X120708331Y20689525D01*
X120613093Y20641906D01*
G04 #@! TO.C,SW32*
X117615476Y32975239D02*
X117758333Y32927620D01*
X117996428Y32927620D01*
X118091666Y32975239D01*
X118139285Y33022858D01*
X118186904Y33118096D01*
X118186904Y33213334D01*
X118139285Y33308572D01*
X118091666Y33356191D01*
X117996428Y33403810D01*
X117805952Y33451429D01*
X117710714Y33499048D01*
X117663095Y33546667D01*
X117615476Y33641905D01*
X117615476Y33737143D01*
X117663095Y33832381D01*
X117710714Y33880000D01*
X117805952Y33927620D01*
X118044047Y33927620D01*
X118186904Y33880000D01*
X118520238Y33927620D02*
X118758333Y32927620D01*
X118948809Y33641905D01*
X119139285Y32927620D01*
X119377380Y33927620D01*
X119663095Y33927620D02*
X120282142Y33927620D01*
X119948809Y33546667D01*
X120091666Y33546667D01*
X120186904Y33499048D01*
X120234523Y33451429D01*
X120282142Y33356191D01*
X120282142Y33118096D01*
X120234523Y33022858D01*
X120186904Y32975239D01*
X120091666Y32927620D01*
X119805952Y32927620D01*
X119710714Y32975239D01*
X119663095Y33022858D01*
X120663095Y33832381D02*
X120710714Y33880000D01*
X120805952Y33927620D01*
X121044047Y33927620D01*
X121139285Y33880000D01*
X121186904Y33832381D01*
X121234523Y33737143D01*
X121234523Y33641905D01*
X121186904Y33499048D01*
X120615476Y32927620D01*
X121234523Y32927620D01*
G04 #@! TO.C,SW63*
X184640475Y37975240D02*
X184783332Y37927621D01*
X185021427Y37927621D01*
X185116665Y37975240D01*
X185164284Y38022859D01*
X185211903Y38118097D01*
X185211903Y38213335D01*
X185164284Y38308573D01*
X185116665Y38356192D01*
X185021427Y38403811D01*
X184830951Y38451430D01*
X184735713Y38499049D01*
X184688094Y38546668D01*
X184640475Y38641906D01*
X184640475Y38737144D01*
X184688094Y38832382D01*
X184735713Y38880001D01*
X184830951Y38927621D01*
X185069046Y38927621D01*
X185211903Y38880001D01*
X185545237Y38927621D02*
X185783332Y37927621D01*
X185973808Y38641906D01*
X186164284Y37927621D01*
X186402379Y38927621D01*
X187211903Y38927621D02*
X187021427Y38927621D01*
X186926189Y38880001D01*
X186878570Y38832382D01*
X186783332Y38689525D01*
X186735713Y38499049D01*
X186735713Y38118097D01*
X186783332Y38022859D01*
X186830951Y37975240D01*
X186926189Y37927621D01*
X187116665Y37927621D01*
X187211903Y37975240D01*
X187259522Y38022859D01*
X187307141Y38118097D01*
X187307141Y38356192D01*
X187259522Y38451430D01*
X187211903Y38499049D01*
X187116665Y38546668D01*
X186926189Y38546668D01*
X186830951Y38499049D01*
X186783332Y38451430D01*
X186735713Y38356192D01*
X187640475Y38927621D02*
X188259522Y38927621D01*
X187926189Y38546668D01*
X188069046Y38546668D01*
X188164284Y38499049D01*
X188211903Y38451430D01*
X188259522Y38356192D01*
X188259522Y38118097D01*
X188211903Y38022859D01*
X188164284Y37975240D01*
X188069046Y37927621D01*
X187783332Y37927621D01*
X187688094Y37975240D01*
X187640475Y38022859D01*
G04 #@! TO.C,Q100*
X155187823Y93070397D02*
X155092585Y93118016D01*
X154997347Y93213255D01*
X154854490Y93356112D01*
X154759252Y93403731D01*
X154664014Y93403731D01*
X154711633Y93165636D02*
X154616395Y93213255D01*
X154521157Y93308493D01*
X154473538Y93498969D01*
X154473538Y93832302D01*
X154521157Y94022778D01*
X154616395Y94118016D01*
X154711633Y94165636D01*
X154902109Y94165636D01*
X154997347Y94118016D01*
X155092585Y94022778D01*
X155140204Y93832302D01*
X155140204Y93498969D01*
X155092585Y93308493D01*
X154997347Y93213255D01*
X154902109Y93165636D01*
X154711633Y93165636D01*
X156092585Y93165636D02*
X155521157Y93165636D01*
X155806871Y93165636D02*
X155806871Y94165636D01*
X155711633Y94022778D01*
X155616395Y93927540D01*
X155521157Y93879921D01*
X156711633Y94165636D02*
X156806871Y94165636D01*
X156902109Y94118016D01*
X156949728Y94070397D01*
X156997347Y93975159D01*
X157044966Y93784683D01*
X157044966Y93546588D01*
X156997347Y93356112D01*
X156949728Y93260874D01*
X156902109Y93213255D01*
X156806871Y93165636D01*
X156711633Y93165636D01*
X156616395Y93213255D01*
X156568776Y93260874D01*
X156521157Y93356112D01*
X156473538Y93546588D01*
X156473538Y93784683D01*
X156521157Y93975159D01*
X156568776Y94070397D01*
X156616395Y94118016D01*
X156711633Y94165636D01*
X157664014Y94165636D02*
X157759252Y94165636D01*
X157854490Y94118016D01*
X157902109Y94070397D01*
X157949728Y93975159D01*
X157997347Y93784683D01*
X157997347Y93546588D01*
X157949728Y93356112D01*
X157902109Y93260874D01*
X157854490Y93213255D01*
X157759252Y93165636D01*
X157664014Y93165636D01*
X157568776Y93213255D01*
X157521157Y93260874D01*
X157473538Y93356112D01*
X157425919Y93546588D01*
X157425919Y93784683D01*
X157473538Y93975159D01*
X157521157Y94070397D01*
X157568776Y94118016D01*
X157664014Y94165636D01*
G04 #@! TO.C,Q1*
X146432562Y90104278D02*
X146384943Y90009040D01*
X146289704Y89913802D01*
X146146847Y89770945D01*
X146099228Y89675707D01*
X146099228Y89580469D01*
X146337323Y89628088D02*
X146289704Y89532850D01*
X146194466Y89437612D01*
X146003990Y89389993D01*
X145670657Y89389993D01*
X145480181Y89437612D01*
X145384943Y89532850D01*
X145337323Y89628088D01*
X145337323Y89818564D01*
X145384943Y89913802D01*
X145480181Y90009040D01*
X145670657Y90056659D01*
X146003990Y90056659D01*
X146194466Y90009040D01*
X146289704Y89913802D01*
X146337323Y89818564D01*
X146337323Y89628088D01*
X146337323Y91009040D02*
X146337323Y90437612D01*
X146337323Y90723326D02*
X145337323Y90723326D01*
X145480181Y90628088D01*
X145575419Y90532850D01*
X145623038Y90437612D01*
G04 #@! TD*
M02*
