M48
; DRILL file {KiCad (5.1.4)-1} date 2020/03/09 13:06:16
; FORMAT={-:-/ absolute / inch / decimal}
; #@! TF.CreationDate,2020-03-09T13:06:16+09:00
; #@! TF.GenerationSoftware,Kicad,Pcbnew,(5.1.4)-1
; #@! TF.FileFunction,Plated,1,2,PTH
FMAT,2
INCH
T1C0.0157
T2C0.0236
T3C0.0276
T4C0.0295
T5C0.0327
T6C0.0472
T7C0.0590
T8C0.0659
%
G90
G05
T1
X0.8083Y1.5957
X0.8083Y1.4067
X1.0256Y1.5256
X1.1171Y1.38
X1.4843Y1.6673
X1.5177Y1.6358
X1.5236Y1.7382
X1.5453Y1.6673
X1.5827Y1.6358
X1.5945Y1.7618
X1.5945Y1.6988
X1.626Y1.7303
X1.626Y1.6673
X1.8661Y1.2421
X1.9055Y1.2421
X1.9104Y1.3553
X1.9909Y1.1272
X1.998Y1.2677
X2.013Y1.1567
X2.1634Y1.2677
X2.1667Y1.1567
X2.1898Y1.1902
X2.1919Y0.9106
X2.2087Y1.2224
X2.3081Y1.3161
X2.3091Y1.4567
X2.3199Y1.6016
X2.3238Y1.3476
X2.3435Y1.3791
X2.3691Y1.6587
X2.38Y0.67
X2.3986Y1.3634
X2.4022Y1.6921
X2.4341Y1.7315
X2.438Y1.324
X2.4669Y1.7801
X2.4774Y1.2866
X2.4987Y1.7501
X2.5217Y0.8012
X2.5748Y0.748
X2.5935Y0.9677
X2.5955Y1.9638
X2.622Y1.1417
X2.6437Y1.4094
X2.6437Y0.6811
X2.7461Y1.126
X2.747Y1.2846
X2.75Y1.4409
X2.9291Y1.002
X2.9537Y1.4087
X3.0325Y1.4087
X3.2274Y0.8516
X3.2283Y1.002
X3.3006Y1.5894
X3.3435Y0.8516
X3.4715Y0.7943
X3.5374Y0.8602
X3.6585Y1.885
X3.7Y0.75
X3.9144Y0.5866
X4.0226Y0.95
X4.2884Y1.448
X4.3573Y0.9205
X4.3625Y1.7669
X4.4341Y1.6606
X4.6081Y4.7388
X4.8717Y2.4514
X4.9085Y0.9402
X4.9085Y1.452
X5.0856Y1.3142
X5.0856Y1.2748
X5.1152Y0.7531
X5.2033Y4.8331
X5.2136Y2.3693
X5.2136Y1.6606
X5.2628Y1.1862
X5.2736Y1.3526
X5.312Y0.8417
X5.3265Y3.9572
X5.4104Y0.9205
X7.5374Y1.5947
X7.938Y1.1173
X7.9449Y0.8543
X7.9449Y0.7126
X8.0383Y0.6531
X8.0876Y1.1488
X8.1388Y1.078
X8.2883Y1.2118
X8.3136Y2.989
X8.3384Y1.0335
X8.3884Y1.033
X8.4384Y1.0351
X9.127Y1.078
X11.4262Y1.1488
X11.5728Y4.6409
X11.8809Y4.5553
T3
X6.1685Y3.6082
X6.1685Y3.5082
X5.8435Y3.6582
X5.8435Y3.5582
X5.8435Y3.4582
T4
X5.5285Y0.9992
X5.5285Y0.9205
X5.5285Y0.8417
X5.5285Y0.763
X5.5285Y1.7472
X5.5285Y1.6685
X5.5285Y1.5898
X5.5285Y1.511
X5.5285Y1.4323
X5.5285Y1.3535
X6.5128Y0.9205
X6.5128Y0.8417
X6.5128Y0.763
X6.5128Y0.6843
T5
X0.5187Y1.0268
X0.5187Y0.9268
X0.5187Y0.8268
X0.5187Y0.7268
X0.5187Y0.6268
X0.5187Y0.5268
X9.2687Y1.0465
X9.2687Y0.9465
X9.2687Y0.8465
X9.2687Y0.7465
X9.2687Y0.6465
X9.2687Y0.5465
X5.35Y1.77
X5.35Y1.67
X2.7Y1.82
T6
X9.5049Y2.3732
X9.7018Y2.2906
X0.9432Y2.452
X1.14Y2.3693
X11.749Y2.3732
X11.9459Y2.2906
X10.253Y2.3732
X10.4498Y2.2906
X7.8219Y2.3732
X8.0187Y2.2906
X6.6998Y2.3732
X6.8967Y2.2906
X3.0974Y2.452
X3.2943Y2.3693
X1.9754Y2.452
X2.1722Y2.3693
X8.7569Y2.3732
X8.9537Y2.2906
X11.001Y3.1213
X11.1978Y3.0386
X5.3415Y2.452
X5.5384Y2.3693
X4.2195Y2.452
X4.4163Y2.3693
X11.001Y2.3732
X11.1978Y2.2906
T7
X8.0557Y4.485
X8.3057Y4.585
X3.3313Y4.5638
X3.5813Y4.6638
X7.8589Y2.989
X8.1089Y3.089
X8.8037Y4.485
X9.0537Y4.585
X5.1817Y5.3118
X5.4317Y5.4118
X5.3785Y3.0677
X5.6285Y3.1677
X10.2998Y4.485
X10.5498Y4.585
X0.9691Y3.8157
X1.2191Y3.9157
X9.0006Y3.737
X9.2506Y3.837
X4.4337Y5.3118
X4.6837Y5.4118
X6.7565Y3.737
X7.0065Y3.837
X9.3549Y2.989
X9.6049Y3.089
X1.8352Y4.5638
X2.0852Y4.6638
X1.9927Y3.8157
X2.2427Y3.9157
X9.1974Y5.2331
X9.4474Y5.3331
X4.8274Y4.5638
X5.0774Y4.6638
X0.8904Y4.5638
X1.1404Y4.6638
X7.7014Y5.2331
X7.9514Y5.3331
X3.8825Y3.0677
X4.1325Y3.1677
X7.1108Y2.989
X7.3608Y3.089
X6.3628Y2.989
X6.6128Y3.089
X3.6856Y5.3118
X3.9356Y5.4118
X1.1659Y3.0677
X1.4159Y3.1677
X7.3077Y4.485
X7.5577Y4.585
X11.9927Y4.485
X12.2427Y4.585
X7.5045Y3.737
X7.7545Y3.837
X4.6305Y3.0677
X4.8805Y3.1677
X11.0478Y4.485
X11.2978Y4.585
X4.9848Y3.8157
X5.2348Y3.9157
X1.4415Y5.3118
X1.6915Y5.4118
X2.3864Y3.0677
X2.6364Y3.1677
X11.8156Y5.2331
X12.0656Y5.3331
X2.7407Y3.8157
X2.9907Y3.9157
X8.4494Y5.2331
X8.6994Y5.3331
X4.0793Y4.5638
X4.3293Y4.6638
X8.6069Y2.989
X8.8569Y3.089
X9.7486Y3.737
X9.9986Y3.837
X2.5833Y4.5638
X2.8333Y4.6638
X11.599Y2.989
X11.849Y3.089
X6.9533Y5.2331
X7.2033Y5.3331
X4.2368Y3.8157
X4.4868Y3.9157
X11.7171Y3.737
X11.9671Y3.837
X8.2526Y3.737
X8.5026Y3.837
X2.1896Y5.3118
X2.4396Y5.4118
X10.4967Y3.737
X10.7467Y3.837
X10.6935Y5.2331
X10.9435Y5.3331
X6.5596Y4.485
X6.8096Y4.585
X9.5518Y4.485
X9.8018Y4.585
X2.9376Y5.3118
X3.1876Y5.4118
X0.6935Y5.3118
X0.9435Y5.4118
X3.1344Y3.0677
X3.3844Y3.1677
X9.9455Y5.2331
X10.1955Y5.3331
X3.4888Y3.8157
X3.7388Y3.9157
X10.103Y2.989
X10.353Y3.089
T8
X1.7852Y4.4638
X2.1852Y4.4638
X2.8809Y2.2197
X3.314Y2.2197
X1.7589Y2.2197
X2.1919Y2.2197
X1.9427Y3.7157
X2.3427Y3.7157
X8.5404Y2.1409
X8.9734Y2.1409
X9.1474Y5.1331
X9.5474Y5.1331
X4.7774Y4.4638
X5.1774Y4.4638
X0.8404Y4.4638
X1.2404Y4.4638
X7.6514Y5.1331
X8.0514Y5.1331
X3.8325Y2.9677
X4.2325Y2.9677
X7.0608Y2.889
X7.4608Y2.889
X6.3128Y2.889
X6.7128Y2.889
X3.6356Y5.2118
X4.0356Y5.2118
X1.1159Y2.9677
X1.5159Y2.9677
X7.2577Y4.385
X7.6577Y4.385
X11.9427Y4.385
X12.3427Y4.385
X7.4545Y3.637
X7.8545Y3.637
X10.7844Y2.889
X11.2175Y2.889
X4.5805Y2.9677
X4.9805Y2.9677
X10.9978Y4.385
X11.3978Y4.385
X5.125Y2.2197
X5.5581Y2.2197
X4.9348Y3.7157
X5.3348Y3.7157
X1.3915Y5.2118
X1.7915Y5.2118
X4.003Y2.2197
X4.436Y2.2197
X2.3364Y2.9677
X2.7364Y2.9677
X11.7656Y5.1331
X12.1656Y5.1331
X2.6907Y3.7157
X3.0907Y3.7157
X10.7844Y2.1409
X11.2175Y2.1409
X8.3994Y5.1331
X8.7994Y5.1331
X4.0293Y4.4638
X4.4293Y4.4638
X8.5569Y2.889
X8.9569Y2.889
X9.6986Y3.637
X10.0986Y3.637
X2.5333Y4.4638
X2.9333Y4.4638
X11.549Y2.889
X11.949Y2.889
X6.9033Y5.1331
X7.3033Y5.1331
X4.1868Y3.7157
X4.5868Y3.7157
X11.6671Y3.637
X12.0671Y3.637
X8.2026Y3.637
X8.6026Y3.637
X2.1396Y5.2118
X2.5396Y5.2118
X10.4467Y3.637
X10.8467Y3.637
X9.2884Y2.1409
X9.7215Y2.1409
X10.6435Y5.1331
X11.0435Y5.1331
X6.5096Y4.385
X6.9096Y4.385
X0.7267Y2.2197
X1.1597Y2.2197
X9.5018Y4.385
X9.9018Y4.385
X2.8876Y5.2118
X3.2876Y5.2118
X11.5325Y2.1409
X11.9656Y2.1409
X0.6435Y5.2118
X1.0435Y5.2118
X3.0844Y2.9677
X3.4844Y2.9677
X10.0364Y2.1409
X10.4695Y2.1409
X9.8955Y5.1331
X10.2955Y5.1331
X3.4388Y3.7157
X3.8388Y3.7157
X7.6053Y2.1409
X8.0384Y2.1409
X10.053Y2.889
X10.453Y2.889
X8.0057Y4.385
X8.4057Y4.385
X3.2813Y4.4638
X3.6813Y4.4638
X7.8089Y2.889
X8.2089Y2.889
X8.7537Y4.385
X9.1537Y4.385
X5.1317Y5.2118
X5.5317Y5.2118
X5.3285Y2.9677
X5.7285Y2.9677
X10.2498Y4.385
X10.6498Y4.385
X0.9191Y3.7157
X1.3191Y3.7157
X8.9506Y3.637
X9.3506Y3.637
X4.3837Y5.2118
X4.7837Y5.2118
X6.7065Y3.637
X7.1065Y3.637
X6.4833Y2.1409
X6.9163Y2.1409
X9.3049Y2.889
X9.7049Y2.889
T2
G00X0.4575Y1.6713
M15
G01X0.489Y1.6713
M16
G05
G00X0.4575Y1.3311
M15
G01X0.489Y1.3311
M16
G05
G00X0.6161Y1.6713
M15
G01X0.6594Y1.6713
M16
G05
G00X0.6161Y1.3311
M15
G01X0.6594Y1.3311
M16
G05
T0
M30
