M48
; DRILL file {KiCad (5.1.4)-1} date 2020/03/09 13:06:16
; FORMAT={-:-/ absolute / inch / decimal}
; #@! TF.CreationDate,2020-03-09T13:06:16+09:00
; #@! TF.GenerationSoftware,Kicad,Pcbnew,(5.1.4)-1
; #@! TF.FileFunction,NonPlated,1,2,NPTH
FMAT,2
INCH
T1C0.0256
T2C0.0441
T3C0.0472
T4C0.1063
T5C0.1181
T6C0.1339
T7C0.1535
T8C0.1570
T9C0.1575
%
G90
G05
T1
X0.6181Y1.615
X0.6181Y1.3874
T2
X7.2618Y1.3732
X7.4193Y1.3732
X4.6211Y0.9402
X4.7785Y0.9402
X4.623Y1.452
X4.7805Y1.452
T3
X9.2994Y1.9756
X0.7377Y2.0543
X11.5435Y1.9756
X10.0474Y1.9756
X7.6163Y1.9756
X6.4943Y1.9756
X2.8919Y2.0543
X1.7699Y2.0543
X8.5514Y1.9756
X10.7955Y2.7236
X5.136Y2.0543
X4.014Y2.0543
X10.7955Y1.9756
T4
X7.0837Y1.7965
X4.9567Y1.8752
X7.0837Y4.7294
X0.5376Y1.8757
X12.5984Y1.7965
X12.5984Y4.5425
X0.5376Y4.6212
X4.9567Y4.8675
T5
X0.8474Y3.2427
X1.7844Y3.2427
X11.497Y5.4081
X12.4341Y5.4081
X11.3986Y3.912
X12.3356Y3.912
T6
X7.8219Y2.1409
X6.6998Y2.1409
X3.0974Y2.2197
X1.9754Y2.2197
X8.7569Y2.1409
X11.001Y2.889
X5.3415Y2.2197
X4.2195Y2.2197
X11.001Y2.1409
X9.5049Y2.1409
X0.9432Y2.2197
X11.749Y2.1409
X10.253Y2.1409
T7
X0.8474Y2.6427
X1.7844Y2.6427
X11.497Y4.8081
X12.4341Y4.8081
X11.3986Y3.312
X12.3356Y3.312
T8
X4.9774Y4.4638
X7.8514Y5.1331
X4.0325Y2.9677
X7.2608Y2.889
X6.5128Y2.889
X3.8356Y5.2118
X7.4577Y4.385
X7.6545Y3.637
X4.7805Y2.9677
X11.1978Y4.385
X5.1348Y3.7157
X1.5915Y5.2118
X2.5364Y2.9677
X2.8907Y3.7157
X8.5994Y5.1331
X4.2293Y4.4638
X8.7569Y2.889
X9.8986Y3.637
X2.7333Y4.4638
X11.749Y2.889
X7.1033Y5.1331
X4.3868Y3.7157
X8.4026Y3.637
X2.3396Y5.2118
X10.6467Y3.637
X10.8435Y5.1331
X6.7096Y4.385
X9.7018Y4.385
X3.0876Y5.2118
X0.8435Y5.2118
X3.2844Y2.9677
X10.0955Y5.1331
X3.6388Y3.7157
X10.253Y2.889
X8.2057Y4.385
X3.4813Y4.4638
X8.0089Y2.889
X8.9537Y4.385
X5.3317Y5.2118
X5.5285Y2.9677
X10.4498Y4.385
X9.1506Y3.637
X4.5837Y5.2118
X6.9065Y3.637
X9.5049Y2.889
X1.9852Y4.4638
X2.1427Y3.7157
X9.3474Y5.1331
T9
X1.1191Y3.7157
X1.0404Y4.4638
X1.3159Y2.9677
X12.1427Y4.385
X11.9656Y5.1331
X11.8671Y3.637
T0
M30
