G04 #@! TF.GenerationSoftware,KiCad,Pcbnew,(5.1.4)-1*
G04 #@! TF.CreationDate,2020-03-09T13:06:10+09:00*
G04 #@! TF.ProjectId,skc03,736b6330-332e-46b6-9963-61645f706362,03*
G04 #@! TF.SameCoordinates,PX7565b60PY115170f0*
G04 #@! TF.FileFunction,Profile,NP*
%FSLAX46Y46*%
G04 Gerber Fmt 4.6, Leading zero omitted, Abs format (unit mm)*
G04 Created by KiCad (PCBNEW (5.1.4)-1) date 2020-03-09 13:06:10*
%MOMM*%
%LPD*%
G04 APERTURE LIST*
%ADD10C,0.100000*%
G04 APERTURE END LIST*
D10*
X160228499Y7380001D02*
X320228499Y7380001D01*
X156228499Y73830000D02*
X156228499Y78380000D01*
X9424988Y14702327D02*
X9424987Y137379276D01*
X324228499Y11380001D02*
G75*
G02X320228499Y7380001I-4000000J0D01*
G01*
X144422749Y127380726D02*
X144422749Y137379276D01*
X171417299Y135380001D02*
G75*
G02X175417299Y139380001I4000000J0D01*
G01*
X171417299Y135380001D02*
X171417299Y124380000D01*
X13424987Y141379275D02*
X140422750Y141379275D01*
X171417299Y124380000D02*
G75*
G02X167417299Y120380000I-4000000J0D01*
G01*
X320228499Y139380001D02*
G75*
G02X324228499Y135380001I0J-4000000D01*
G01*
X324228499Y11380001D02*
X324228499Y135380001D01*
X165424999Y120380001D02*
X167417299Y120380001D01*
X161425000Y116380001D02*
G75*
G02X165424999Y120380000I3999999J0D01*
G01*
X320228499Y139380001D02*
X175417299Y139380000D01*
X9424988Y137379276D02*
G75*
G02X13424987Y141379275I3999999J0D01*
G01*
X140422750Y141379275D02*
G75*
G02X144422749Y137379276I0J-3999999D01*
G01*
X137476198Y102095543D02*
G75*
G02X135423087Y105589770I1946889J3494227D01*
G01*
X161424999Y106380001D02*
X161425000Y116380001D01*
X163924999Y102671902D02*
G75*
G02X161424999Y106380001I1500000J3708099D01*
G01*
X163925000Y102671900D02*
G75*
G02X166424999Y98963802I-1500000J-3708098D01*
G01*
X166424999Y86380000D02*
X166424999Y98963802D01*
X166424999Y86380000D02*
G75*
G02X162424999Y82380000I-4000000J0D01*
G01*
X160228499Y82380000D02*
X162424999Y82380000D01*
X156228499Y78380000D02*
G75*
G02X160228499Y82380000I4000000J0D01*
G01*
X156228499Y11380001D02*
X156228499Y73830000D01*
X149424988Y80899507D02*
X149424988Y13379275D01*
X149424988Y80899506D02*
G75*
G02X153424976Y84899507I4000000J1D01*
G01*
X157294948Y84899519D02*
X153424976Y84899507D01*
X159294942Y86899517D02*
G75*
G02X157294948Y84899519I-1999999J1D01*
G01*
X159294943Y93859517D02*
X159294943Y86899518D01*
X157294943Y95859517D02*
G75*
G02X159294943Y93859517I0J-2000000D01*
G01*
X143119168Y95859515D02*
X157294942Y95859517D01*
X143119169Y95859515D02*
G75*
G02X139140013Y99451681I-1J4000000D01*
G01*
X138949998Y100325416D02*
G75*
G02X139140013Y99451681I-3789139J-1281568D01*
G01*
X137476198Y102095543D02*
G75*
G02X138949998Y100325416I-1557511J-2795381D01*
G01*
X156247761Y10987932D02*
X156228499Y11380001D01*
X156305358Y10599639D02*
X156247761Y10987932D01*
X156400738Y10218862D02*
X156305358Y10599639D01*
X156532981Y9849267D02*
X156400738Y10218862D01*
X156700814Y9494414D02*
X156532981Y9849267D01*
X156902621Y9157720D02*
X156700814Y9494414D01*
X157136458Y8842427D02*
X156902621Y9157720D01*
X157400072Y8551573D02*
X157136458Y8842427D01*
X157690926Y8287959D02*
X157400072Y8551573D01*
X158006219Y8054122D02*
X157690926Y8287959D01*
X158342913Y7852315D02*
X158006219Y8054122D01*
X158697766Y7684482D02*
X158342913Y7852315D01*
X159067361Y7552239D02*
X158697766Y7684482D01*
X159448138Y7456859D02*
X159067361Y7552239D01*
X159836431Y7399262D02*
X159448138Y7456859D01*
X160228499Y7380001D02*
X159836431Y7399262D01*
X149424988Y13379275D02*
G75*
G02X145424988Y9379275I-4000000J0D01*
G01*
X135423087Y119380727D02*
X135423087Y105589770D01*
X135423088Y119380727D02*
G75*
G02X139423087Y123380726I3999999J0D01*
G01*
X140422750Y123380727D02*
X139423087Y123380726D01*
X144422749Y127380726D02*
G75*
G02X140422750Y123380727I-3999999J0D01*
G01*
X145424988Y9379275D02*
X13424987Y9379275D01*
X9424987Y13379275D02*
X9424988Y14702327D01*
X13424987Y9379275D02*
G75*
G02X9424987Y13379275I0J4000000D01*
G01*
M02*
